<svg width="52" height="52" viewBox="0 0 52 52" fill="none" xmlns="http://www.w3.org/2000/svg">
<path d="M52 30.68C34.6125 30.68 17.3672 30.68 0 30.68C0 30.2731 0 29.9069 0 29.561C0 21.4231 0 13.2852 0 5.16759C0 1.83103 1.84844 0 5.15937 0C19.0734 0 32.9672 0 46.8813 0C50.1313 0 52 1.85138 52 5.08621C52 13.2445 52 21.4231 52 29.5814C52 29.9272 52 30.2528 52 30.68ZM42.7578 16.7845C42.7578 15.4214 42.7375 14.0786 42.7578 12.7155C42.7781 11.7797 42.4531 11.1286 41.6203 10.6403C39.3453 9.31793 37.0906 7.93448 34.8766 6.53069C34.0234 6.00172 33.2922 6.00172 32.4391 6.53069C30.1844 7.93448 27.8891 9.33828 25.5938 10.681C24.8219 11.1286 24.4969 11.7186 24.4969 12.5731C24.4969 15.4214 24.5172 18.2697 24.4969 21.1179C24.4969 21.9521 24.8422 22.5217 25.5531 22.949C27.8687 24.3324 30.1844 25.7159 32.4797 27.14C33.2922 27.6486 34.0234 27.6079 34.8359 27.1197C37.1109 25.7159 39.3859 24.3324 41.6812 22.9897C42.4328 22.5421 42.7781 21.9521 42.7781 21.0976C42.7375 19.6328 42.7578 18.2086 42.7578 16.7845ZM13.65 12.2883C14.6859 12.2883 15.7422 12.329 16.7781 12.2679C17.7734 12.2272 18.3219 11.6372 18.3219 10.7624C18.3219 9.88759 17.7734 9.29759 16.7578 9.27724C14.7266 9.23655 12.7156 9.23655 10.6844 9.27724C9.75 9.29759 9.14062 9.94862 9.14062 10.7828C9.14062 11.6372 9.72969 12.2272 10.725 12.2883C11.7 12.329 12.675 12.2883 13.65 12.2883ZM13.8125 24.4952C14.7875 24.4952 15.7625 24.5359 16.7375 24.4952C17.7531 24.4545 18.3219 23.9052 18.3422 23.0303C18.3625 22.1148 17.7938 21.5045 16.7375 21.4841C14.7469 21.4434 12.7563 21.4434 10.7656 21.4841C9.79062 21.5045 9.16094 22.1148 9.14062 22.949C9.12031 23.8238 9.75 24.4545 10.7656 24.4952C11.7812 24.5359 12.7969 24.4952 13.8125 24.4952ZM13.8125 15.3603C12.7969 15.3603 11.7812 15.3197 10.7859 15.3603C9.75 15.401 9.12031 16.0317 9.14062 16.9066C9.16094 17.7407 9.77031 18.351 10.7656 18.3714C12.7563 18.4121 14.7469 18.4121 16.7375 18.3714C17.7938 18.351 18.3625 17.7407 18.3422 16.8252C18.3219 15.9503 17.7734 15.401 16.7375 15.3603C15.7625 15.34 14.7875 15.3807 13.8125 15.3603Z" fill="#FF5959"/>
<path d="M0.0801939 33.28C17.3972 33.28 34.6532 33.28 51.9093 33.28C52.4581 37.1458 50.4865 39.5199 46.828 39.5199C32.9459 39.5199 19.0639 39.5199 5.1818 39.5199C1.50295 39.5409 -0.427934 37.1878 0.0801939 33.28Z" fill="#E0E0E0"/>
<path d="M33.5077 43.1599C33.5077 44.1076 33.5077 45.0158 33.5077 46.0819C34.1107 46.0819 34.6334 46.0622 35.156 46.0819C37.548 46.1609 39.4174 47.9772 39.5179 50.2674C39.5581 51.3336 39.0154 51.9851 37.95 51.9851C29.99 52.0048 22.0099 52.0048 14.0499 51.9851C12.9846 51.9851 12.4419 51.3336 12.4821 50.2674C12.5826 48.0167 14.4319 46.2004 16.7435 46.0819C17.2661 46.0622 17.8088 46.0819 18.4521 46.0819C18.4521 45.0553 18.4521 44.1076 18.4521 43.1599C23.5175 43.1599 28.4624 43.1599 33.5077 43.1599Z" fill="#E0E0E0"/>
<path d="M28.6 12.1992C30.2359 11.207 31.6565 10.3225 33.0987 9.48128C33.314 9.35185 33.7445 9.30871 33.9597 9.43813C35.4234 10.301 36.8656 11.207 38.48 12.1992C36.8441 13.1915 35.3158 14.1191 33.809 15.0251C33.6584 15.1113 33.3785 15.0898 33.2494 15.0035C31.7211 14.1191 30.2359 13.2131 28.6 12.1992Z" fill="#E0E0E0"/>
<path d="M39.5148 15.08C39.5148 16.9736 39.5355 18.6457 39.494 20.2976C39.494 20.4789 39.328 20.7408 39.162 20.8617C37.7922 21.6876 36.4224 22.4934 34.8452 23.4C34.8452 21.5264 34.8244 19.8342 34.8659 18.142C34.8659 17.9406 35.115 17.6787 35.3017 17.5377C36.63 16.752 37.9582 15.9865 39.5148 15.08Z" fill="#E0E0E0"/>
<path d="M32.24 23.4C30.6592 22.4755 29.2864 21.6917 27.9136 20.8477C27.7472 20.7472 27.5808 20.4859 27.5808 20.285C27.56 18.617 27.56 16.9489 27.56 15.08C29.1408 16.0044 30.5552 16.8083 31.9488 17.6523C32.1152 17.7528 32.2192 18.0944 32.2192 18.3356C32.24 19.9634 32.24 21.5712 32.24 23.4Z" fill="#E0E0E0"/>
</svg>
