<svg width="26" height="26" viewBox="0 0 26 26" fill="none" xmlns="http://www.w3.org/2000/svg">
<path d="M14.1311 20.838C13.2223 21.1819 12.3136 21.5358 11.3948 21.8695C11.2849 21.91 11.1052 21.8493 11.0053 21.7684C8.53866 19.675 7.12057 17.0255 6.69116 13.7894C6.39156 11.514 6.99075 8.85429 7.66983 7.47894C8.41882 8.22729 9.12786 8.99587 9.89682 9.70377C10.2963 10.0779 10.4261 10.4622 10.4261 11.0184C10.3862 14.6287 11.5446 17.8143 13.9314 20.5144C13.9913 20.5751 14.0412 20.6358 14.0911 20.7066C14.1111 20.7268 14.1111 20.7571 14.1311 20.838Z" fill="#FF0000"/>
<path d="M5.03342 11.3724C4.93356 15.7715 6.39159 19.4829 9.57728 22.5573C8.56864 22.9415 7.60994 23.3056 6.65124 23.6494C6.55137 23.6798 6.37162 23.5787 6.28174 23.4876C4.58403 21.9404 3.43559 20.0493 2.81642 17.8244C2.76649 17.6626 2.76649 17.4503 2.82641 17.2885C3.52546 15.367 4.24449 13.4557 4.95353 11.5342C4.97351 11.4837 5.01345 11.4331 5.03342 11.3724Z" fill="#FF0000"/>
<path d="M23.2289 2.18998C23.3088 1.64388 23.2988 1.1079 23.4785 0.642712C23.5784 0.369664 23.9379 0.0966173 24.2275 0.0157144C24.7168 -0.10564 25.1962 0.501132 24.9465 0.966323C24.6969 1.43151 24.8267 1.84614 24.8966 2.28099C25.0863 3.47431 24.5471 4.01029 23.3787 3.79792C23.0791 3.74736 22.7695 3.68668 22.35 3.61589C22.42 4.06086 22.4599 4.39458 22.5198 4.73842C22.7196 5.82049 22.1603 6.39693 21.0918 6.23512C19.9533 6.0632 19.9533 6.0632 20.153 7.18573C20.3328 8.24758 19.7336 8.84424 18.675 8.63187C17.5565 8.4195 17.5565 8.4195 17.7563 9.53191C17.956 10.6646 17.3868 11.2309 16.2583 11.0286C15.8289 10.9477 15.4194 10.8061 14.96 11.0691C14.6405 11.2511 14.271 11.1095 14.0812 10.7353C13.8915 10.3713 13.9814 10.0376 14.271 9.78473C14.8202 9.31954 15.4594 9.31954 16.1884 9.48135C16.1384 8.76334 16.0086 8.03521 16.5579 7.46889C17.1071 6.90257 17.8062 6.90257 18.5752 7.06438C18.4853 6.31602 18.4054 5.5879 18.9746 5.01147C19.5339 4.45526 20.2329 4.51594 20.942 4.63729C20.8321 2.58438 21.1417 2.27088 23.2289 2.18998Z" fill="#FF0000"/>
<path d="M11.8941 11.7972C12.0938 11.9792 12.2136 12.0803 12.3335 12.1916C14.2309 14.1029 16.1183 16.0244 18.0158 17.9458C18.6649 18.6031 18.5451 19.1593 17.6862 19.4931C17.147 19.7054 16.6077 19.9178 16.0484 20.0998C15.8986 20.1504 15.649 20.0998 15.5491 19.9987C13.5119 17.9862 12.3235 15.5592 11.9939 12.6972C11.964 12.4242 11.934 12.1714 11.8941 11.7972Z" fill="#FF0000"/>
<path d="M1.90762 19.7762C2.6666 21.546 3.65526 23.0022 4.95351 24.3169C3.56538 24.8428 2.24717 25.3687 0.908975 25.8338C0.319772 26.0361 -0.15958 25.4192 0.0501365 24.772C0.249866 24.1652 0.489542 23.5787 0.709245 22.982C1.08873 21.9606 1.46822 20.9493 1.90762 19.7762Z" fill="#FF0000"/>
<path d="M15.1197 2.4125C15.0897 4.86992 14.151 6.68012 12.6231 8.21728C12.2835 8.56112 11.8641 8.551 11.5545 8.24762C11.2649 7.95434 11.2649 7.5296 11.5645 7.15543C11.944 6.67001 12.3734 6.21493 12.703 5.69918C13.5019 4.43507 13.8015 3.05972 13.5019 1.56302C13.392 1.01692 13.6017 0.652862 14.0511 0.541621C14.4706 0.440492 14.87 0.723652 14.9699 1.23941C15.0598 1.7046 15.0897 2.16979 15.1197 2.4125Z" fill="#FF0000"/>
<path d="M23.1189 10.5229C23.4185 10.5735 23.9378 10.6241 24.4272 10.7353C24.8666 10.8364 25.0663 11.2511 24.9664 11.6758C24.8766 12.05 24.4871 12.2927 24.0676 12.2017C21.9505 11.7163 20.2328 12.5152 18.6849 13.9006C18.5851 13.9917 18.4952 14.0928 18.3953 14.1737C18.0658 14.4366 17.6264 14.4164 17.3567 14.1332C17.0971 13.8501 17.0871 13.3849 17.3767 13.0815C18.9046 11.5241 20.7122 10.5836 23.1189 10.5229Z" fill="#FF0000"/>
<path d="M23.1988 8.99587C22.7894 8.99587 22.4798 8.68237 22.4698 8.26775C22.4598 7.84301 22.7993 7.47894 23.2088 7.47894C23.5783 7.47894 23.9478 7.84301 23.9578 8.22729C23.9777 8.64192 23.6282 8.99587 23.1988 8.99587Z" fill="#FF0000"/>
<path d="M18.665 2.85738C18.6849 3.25178 18.3654 3.60573 17.9659 3.62596C17.5265 3.6563 17.197 3.3428 17.187 2.90794C17.177 2.49332 17.4766 2.14948 17.866 2.11914C18.2555 2.0888 18.645 2.45287 18.665 2.85738Z" fill="#FF0000"/>
<path d="M11.225 3.96984C11.2151 4.36424 10.8855 4.70808 10.506 4.71819C10.1066 4.7283 9.74704 4.35413 9.75702 3.9395C9.76701 3.50465 10.0966 3.19115 10.536 3.21137C10.9454 3.2316 11.235 3.5451 11.225 3.96984Z" fill="#FF0000"/>
<path d="M22.2201 15.0131C22.6495 15.0535 22.9392 15.4176 22.8792 15.8524C22.8293 16.257 22.4898 16.53 22.0703 16.4896C21.6809 16.4592 21.3613 16.0952 21.3912 15.7008C21.4212 15.2962 21.8007 14.9827 22.2201 15.0131Z" fill="#FF0000"/>
</svg>
