<svg width="26" height="21" viewBox="0 0 26 21" fill="none" xmlns="http://www.w3.org/2000/svg">
<g clip-path="url(#clip0_98_43)">
<path d="M12.7105 11.3234C13.5418 11.3721 14.383 11.3332 15.1948 11.4793C17.3368 11.8789 18.8724 13.7206 18.9409 15.8742C18.98 17.0923 18.9605 18.3104 18.9409 19.5285C18.9409 19.6844 18.7746 19.8988 18.6181 19.967C17.3662 20.5615 16.0262 20.7954 14.6569 20.9318C11.9964 21.1851 9.4045 20.7856 6.85169 20.0353C6.5387 19.9476 6.41155 19.8209 6.42133 19.4701C6.45067 18.3202 6.42133 17.1605 6.43111 16.0107C6.45067 13.4575 8.43619 11.4501 10.9988 11.3721C11.5661 11.3527 12.1432 11.3721 12.7105 11.3721C12.7105 11.3527 12.7105 11.3332 12.7105 11.3234Z" fill="#FF0000"/>
<path d="M5.55082 17.1703C3.6142 17.0923 1.80474 16.6733 0.0735151 16.1373C0.0735151 14.5197 -0.0634176 12.9216 0.102858 11.3526C0.3376 9.25752 2.39159 7.61065 4.50427 7.58142C5.68776 7.57167 6.88103 7.58142 8.1232 7.58142C8.22101 8.77028 8.63181 9.81297 9.52187 10.6997C8.1232 11.187 7.06686 11.9958 6.32351 13.2042C5.58017 14.4223 5.48236 15.767 5.55082 17.1703Z" fill="#FF0000"/>
<path d="M15.8501 10.6998C16.6815 9.81298 17.151 8.82875 17.1999 7.63014C17.3173 7.61066 17.4248 7.58142 17.5324 7.58142C18.7551 7.61066 19.9874 7.52295 21.1905 7.68861C23.3619 7.9907 24.9855 9.97864 25.005 12.1615C25.0148 13.3308 24.9953 14.5002 25.0148 15.6696C25.0148 15.9619 24.9268 16.0984 24.6627 16.2153C23.4988 16.7513 21.1612 17.2288 19.8114 17.1703C20.0266 14.1397 18.892 11.8789 15.8501 10.6998Z" fill="#FF0000"/>
<path d="M16.3392 7.42549C16.3489 9.45241 14.7351 11.0798 12.7104 11.0895C10.6662 11.0993 8.9937 9.44266 9.00349 7.43524C9.01327 5.43756 10.676 3.79069 12.6811 3.78094C14.696 3.78094 16.3294 5.40832 16.3392 7.42549Z" fill="#FF0000"/>
<path d="M6.24527 7.40605C4.21084 7.31835 2.59699 5.7202 2.56765 3.70303C2.53831 1.70536 4.16194 0.0389977 6.18658 1.86052e-05C8.15255 -0.0389605 9.85442 1.57867 9.89355 3.55686C9.89355 3.72252 9.79574 3.93691 9.67837 4.05385C8.96436 4.71649 8.49488 5.49607 8.25036 6.44132C8.20145 6.62647 8.02539 6.86034 7.85912 6.91881C7.33095 7.12345 6.78322 7.25013 6.24527 7.40605Z" fill="#FF0000"/>
<path d="M18.7453 7.30857C18.5986 7.29883 18.4518 7.29883 18.3051 7.28908C17.4542 7.22087 17.2977 7.08444 17.063 6.27563C16.7793 5.27191 16.2218 4.45335 15.3904 3.83943C15.1557 3.67377 15.097 3.50811 15.1166 3.23525C15.2535 1.50068 16.8478 0.0584554 18.6866 -1.32906e-05C20.4765 -0.0487372 22.1686 1.38375 22.374 3.10857C22.6381 5.42783 21.0047 7.32806 18.7453 7.30857Z" fill="#FF0000"/>
</g>
<defs>
<clipPath id="clip0_98_43">
<rect width="25" height="21" fill="white" transform="translate(0.0148315)"/>
</clipPath>
</defs>
</svg>
