<svg width="31" height="55" viewBox="0 0 31 55" fill="none" xmlns="http://www.w3.org/2000/svg">
<g clip-path="url(#clip0_166_122)">
<path d="M0.25116 45.0736C10.5752 45.0736 20.7318 45.0736 31 45.0736C31 32.7481 31 20.4825 31 8.09705C20.7597 8.09705 10.5473 8.09705 0.25116 8.09705C0.25116 20.4226 0.25116 32.6881 0.25116 45.0736Z" fill="#FF5959"/>
<path d="M30.8326 47.6227C20.5923 47.6227 10.4356 47.6227 0.279026 47.6227C-0.837086 51.9111 1.25562 54.94 5.32943 54.94C11.9424 54.94 18.5275 54.8201 25.1125 55C29.3258 55.12 31.6418 52.6908 30.8326 47.6227ZM15.486 52.361C15.207 52.361 14.8722 52.4809 14.6769 52.331C14.2583 52.0611 13.5608 51.5812 13.6166 51.3113C13.7003 50.8315 14.1467 50.1718 14.5932 50.0218C15.1512 49.7819 15.9325 49.8119 16.4905 50.0218C16.937 50.2017 17.4113 50.8015 17.495 51.3113C17.5509 51.5812 16.8812 52.0911 16.4347 52.361C16.2115 52.4809 15.8209 52.361 15.486 52.361Z" fill="#E0E0E0"/>
<path d="M0.19532 5.45802C10.3798 5.45802 20.5644 5.45802 30.7489 5.45802C31.586 2.84896 29.27 0.389858 27.5122 0.119956C27.0378 0.0599782 26.5077 0 26.0054 0C19.0018 0 11.9982 0 4.9667 0.0299891C1.67417 0.0299891 -0.223223 2.21919 0.19532 5.45802Z" fill="#E0E0E0"/>
<rect x="8" y="22" width="16" height="3" fill="white"/>
<rect x="8" y="28" width="11" height="3" fill="white"/>
</g>
<defs>
<clipPath id="clip0_166_122">
<rect width="31" height="55" fill="white" transform="matrix(-1 0 0 1 31 0)"/>
</clipPath>
</defs>
</svg>
