<svg width="52" height="52" viewBox="0 0 52 52" fill="none" xmlns="http://www.w3.org/2000/svg">
<g clip-path="url(#clip0_149_112)">
<path d="M26.0776 -3.22107e-05C30.7343 -3.22107e-05 35.391 -0.0222071 40.0478 -3.22107e-05C46.035 0.0443175 50.603 3.81404 51.8004 9.69037C51.9335 10.3778 51.9778 11.0874 51.9778 11.7748C52 18.0946 52.0222 24.4145 51.9778 30.7343C51.9335 36.4554 48.2303 41.0012 42.6866 42.2652C41.7552 42.4648 40.7795 42.5535 39.826 42.5757C30.5791 42.5978 21.3544 42.5978 12.1075 42.5757C6.05373 42.5757 1.35266 38.6951 0.177398 32.7744C0.0443487 32.0648 0.0221739 31.3108 0.0221739 30.5791C-9.54606e-07 24.3701 -9.54606e-07 18.1612 0.0221739 11.9522C0.0443487 5.965 3.81407 1.37481 9.71258 0.199541C10.5774 0.0221426 11.4644 0.0221426 12.3514 0.0221426C16.9194 -3.22098e-05 21.5096 -3.22107e-05 26.0776 -3.22107e-05ZM17.4738 21.2213C18.4716 20.2678 19.4473 19.3586 20.3787 18.4273C21.5318 17.2742 21.5983 15.9215 20.6004 14.9015C19.6247 13.9036 18.1834 13.9479 17.0746 15.0345C15.6333 16.4537 14.1919 17.8951 12.7727 19.3364C11.4644 20.6669 11.4644 21.8644 12.7505 23.1727C14.1475 24.5919 15.5667 26.0111 16.9859 27.4081C18.2055 28.6055 19.5804 28.6942 20.6004 27.652C21.6205 26.6098 21.5318 25.2571 20.3343 24.0375C19.4252 23.1283 18.4938 22.2413 17.4738 21.2213ZM34.5706 21.2435C33.5284 22.2635 32.5527 23.1727 31.6213 24.104C30.4904 25.2571 30.4239 26.6319 31.3996 27.6298C32.3974 28.6499 33.7945 28.6055 34.9476 27.4746C36.4333 26.0332 37.8968 24.5697 39.3382 23.084C40.5356 21.8422 40.5356 20.6226 39.3382 19.403C37.8968 17.9172 36.4333 16.4759 34.9476 15.0123C33.8166 13.9036 32.3974 13.8592 31.4217 14.8349C30.4239 15.855 30.4904 17.2076 31.6213 18.3607C32.5527 19.3586 33.5284 20.2456 34.5706 21.2435Z" fill="#FF5959"/>
<path d="M25.9002 52C21.2435 52 16.5868 52.0222 11.9301 52C10.0674 51.9779 8.95863 50.3591 9.64605 48.7625C10.0452 47.8312 10.7991 47.3211 11.8192 47.3211C21.2878 47.3211 30.7343 47.299 40.203 47.3211C41.6 47.3211 42.62 48.4299 42.5757 49.716C42.5313 50.98 41.5557 51.9779 40.203 52C35.4354 52 30.6678 51.9779 25.9002 52Z" fill="#E0E0E0"/>
</g>
<defs>
<clipPath id="clip0_149_112">
<rect width="52" height="52" fill="white"/>
</clipPath>
</defs>
</svg>
