<svg width="62" height="55" viewBox="0 0 62 55" fill="none" xmlns="http://www.w3.org/2000/svg">
<g clip-path="url(#clip0_149_115)">
<path d="M14.6708 40.3936C14.6708 39.2682 14.6224 38.314 14.695 37.4088C14.7192 37.1152 15.0824 36.7971 15.3729 36.6258C15.8571 36.3322 16.4381 36.2344 16.8739 35.9163C18.1327 35.0355 18.2054 34.3015 17.4065 33.0048C13.8961 27.3287 13.5814 21.4568 16.8497 15.6828C20.1663 9.85982 25.3713 7.07068 32.0531 7.43767C40.4779 7.90253 46.9418 14.7286 47.3049 23.4141C47.6439 31.5858 41.5189 39.0235 33.433 40.1979C32.392 40.3447 31.351 40.3692 30.2858 40.3936C25.5166 40.4181 20.7716 40.3936 16.0023 40.3936C15.6392 40.3936 15.2518 40.3936 14.6708 40.3936ZM40.0906 22.1419C38.8559 22.1419 37.7181 22.1419 36.4592 22.1419C36.4592 22.9982 36.5076 23.7811 36.435 24.5395C36.3623 25.4448 36.7013 25.7384 37.597 25.7139C40.5506 25.616 40.0179 26.1298 40.0664 23.2428C40.0906 22.9003 40.0906 22.5822 40.0906 22.1419ZM21.9336 22.1174C21.9336 22.9737 21.982 23.7077 21.9094 24.4417C21.8126 25.4693 22.1757 25.7628 23.1925 25.7384C25.9766 25.6405 25.4924 26.1298 25.5408 23.3652C25.5408 22.9737 25.4924 22.5822 25.4682 22.1174C24.3061 22.1174 23.2167 22.1174 21.9336 22.1174ZM29.269 25.616C30.4553 25.616 31.5447 25.616 32.7309 25.616C32.7309 24.4172 32.7309 23.2673 32.7309 22.1174C31.5447 22.1174 30.4311 22.1174 29.269 22.1174C29.269 23.2918 29.269 24.3683 29.269 25.616Z" fill="#FF5959"/>
<path d="M12.5646 32.9071C9.97423 32.9071 7.19016 33.0783 4.4303 32.8581C2.00937 32.6624 0.0968328 30.2892 0.0484142 27.7692C-4.42751e-06 25.1513 -4.42751e-06 22.5579 0.0484142 19.94C0.0968328 17.2242 2.20304 14.9978 4.91448 14.7532C5.90706 14.6553 6.92385 14.6308 7.94064 14.7042C8.88481 14.7776 9.32057 14.4351 9.75634 13.5788C13.3877 6.28785 19.1495 1.71268 27.187 0.34257C37.5002 -1.419 47.4502 3.81677 52.0984 13.3586C52.6068 14.3862 53.1636 14.8266 54.2772 14.7042C55.1246 14.6064 55.9719 14.6553 56.8192 14.7287C59.8454 14.9244 61.9758 17.1998 62 20.2581C62.0242 22.6557 62.0242 25.0779 62 27.4756C61.9758 30.436 59.9906 32.6869 57.0613 32.9805C55.8993 33.1028 54.713 32.9805 53.551 33.1028C53.1394 33.1517 52.5584 33.4698 52.3889 33.8368C49.2417 40.4427 44.2062 44.8221 37.2339 46.8528C36.5802 47.0485 36.435 47.3911 36.435 47.9782C36.4108 48.9814 36.4592 50.0334 36.2171 51.0121C35.5635 53.7278 32.9246 55.367 30.0922 54.9266C27.4775 54.5352 25.5166 52.162 25.565 49.4218C25.6134 46.6326 27.647 44.3083 30.4069 44.1126C33.5299 43.8924 36.556 43.5009 39.4369 42.1308C47.3292 38.363 52.0258 29.6775 50.7911 21.0654C49.5322 12.1597 42.5599 5.08901 33.772 3.81677C21.4979 2.03074 10.3858 12.2576 11.1363 24.7598C11.3057 27.4756 12.0562 30.1669 12.5646 32.9071Z" fill="#E0E0E0"/>
</g>
<defs>
<clipPath id="clip0_149_115">
<rect width="62" height="55" fill="white"/>
</clipPath>
</defs>
</svg>
