<svg width="52" height="50" viewBox="0 0 52 50" fill="none" xmlns="http://www.w3.org/2000/svg">
<g clip-path="url(#clip0_150_118)">
<path d="M21.5298 42.7046C21.279 40.091 21.5755 37.7501 23.1948 35.6364C24.8597 33.4773 26.3877 31.2273 27.9842 29.0001C30.0369 26.1364 29.8316 23.6819 27.3684 21.1819C27.072 20.8864 26.7755 20.591 26.479 20.2955C25.5895 19.4773 24.8141 19.4091 23.8334 20.1591C21.7123 21.8182 19.5913 23.4773 17.5158 25.1819C16.1702 26.2955 14.6649 26.8182 12.9088 26.7955C11.1298 26.7728 9.30529 26.6137 7.57195 26.9091C3.99125 27.5001 1.57371 29.6364 0.433355 33.1364C0.342127 33.4091 0.250899 33.6591 0.022829 33.8864C0.022829 24.9091 -0.0227851 15.9319 0.045636 6.9546C0.068443 3.06824 3.26143 0.0227828 7.18423 0.0227828C19.7281 5.54868e-05 32.272 5.54868e-05 44.8158 0.0227828C48.7614 0.0227828 51.9316 3.13642 51.9544 7.09097C52.0228 16.6364 52.0228 26.1819 51.9544 35.7273C51.9316 39.7046 48.7614 42.7273 44.793 42.7501C37.3123 42.7728 29.8088 42.7501 22.3281 42.7501C22.1 42.7501 21.872 42.7273 21.5298 42.7046ZM2.71406 16.9546C2.71406 21.4319 6.31757 25.0001 10.8334 25.0001C15.2579 25.0001 18.9527 21.2955 18.907 16.8864C18.8614 12.4319 15.2351 8.84096 10.7421 8.86369C6.24914 8.86369 2.69125 12.4546 2.71406 16.9546ZM46.4807 12.4546C46.4807 11.2728 46.4807 10.1819 46.4807 9.00006C41.1439 9.00006 35.8983 9.00006 30.5842 9.00006C30.5842 10.1819 30.5842 11.2955 30.5842 12.4546C35.8983 12.4546 41.1667 12.4546 46.4807 12.4546ZM30.5614 19.5228C33.5948 19.5228 36.4913 19.5228 39.3649 19.5228C39.3649 18.341 39.3649 17.2728 39.3649 16.1819C36.4 16.1819 33.5035 16.1819 30.5614 16.1819C30.5614 17.3182 30.5614 18.4091 30.5614 19.5228Z" fill="#FF5959"/>
<path d="M24.9965 23.7954C26 24.9318 26.0456 25.5909 25.2474 26.7272C23.5596 29.1136 21.8719 31.4772 20.1386 33.8181C18.5649 35.9318 17.8579 38.2954 17.8579 40.909C17.8807 43.1818 17.8807 45.4545 17.8579 47.7272C17.8351 49.3636 17.2193 49.9772 15.5772 49.9772C12.3614 49.9772 9.12279 49.9772 5.907 49.9772C4.2649 49.9772 3.64911 49.3636 3.64911 47.7045C3.64911 43.7727 3.64911 39.8409 3.64911 35.909C3.64911 32.7045 5.97542 30.3409 9.23683 30.2727C10.6509 30.25 12.0421 30.25 13.4561 30.2727C15.8053 30.3181 17.8351 29.5454 19.6368 28.0909C21.3702 26.659 23.1719 25.25 24.9965 23.7954Z" fill="#E0E0E0"/>
<path d="M10.7877 21.3636C8.27894 21.3636 6.31754 19.409 6.34035 16.909C6.34035 14.4318 8.25614 12.5 10.7193 12.5C13.2281 12.4772 15.2351 14.4318 15.2579 16.909C15.2807 19.3409 13.2737 21.3636 10.7877 21.3636Z" fill="#E0E0E0"/>
</g>
<defs>
<clipPath id="clip0_150_118">
<rect width="52" height="50" fill="white"/>
</clipPath>
</defs>
</svg>
