<svg width="52" height="52" viewBox="0 0 52 52" fill="none" xmlns="http://www.w3.org/2000/svg">
<g clip-path="url(#clip0_168_133)">
<path d="M48.4483 28.8839C49.8561 15.5478 39.7853 3.79469 26.834 3.40437C14.2726 3.03572 2.27425 13.2059 3.5304 28.9273C3.87692 28.7538 4.18013 28.602 4.48333 28.4502C9.65951 26.0215 15.572 29.7513 15.5937 35.4978C15.6154 38.3818 15.6154 41.2876 15.5937 44.1717C15.572 48.552 12.1068 51.9999 7.75364 51.9999C3.48708 51.9782 0.0218585 48.5086 0.0218585 44.1717C0.000200824 37.9265 0.000200824 31.6813 0.0218585 25.4144C0.0651737 13.3143 9.46459 2.32013 21.398 0.368502C35.562 -1.93008 48.2967 6.63539 51.4154 20.6437C51.762 22.2267 51.9352 23.8531 51.9569 25.4794C52.0219 31.7029 52.0002 37.9048 51.9785 44.1283C51.9785 48.5303 48.5133 51.9999 44.1818 51.9999C39.8503 51.9999 36.4067 48.5086 36.385 44.1283C36.385 41.3527 36.385 38.5553 36.385 35.7797C36.385 29.6429 42.3192 25.9348 47.8419 28.6454C48.0368 28.7105 48.2318 28.7972 48.4483 28.8839Z" fill="#FF5959"/>
<path d="M24.2565 38.9892C24.2565 35.3895 24.2565 31.7682 24.2565 28.1685C24.2565 26.7807 24.863 26 25.9458 25.9783C27.072 25.9566 27.7218 26.759 27.7218 28.1902C27.7218 35.4546 27.7218 42.6973 27.7218 49.9617C27.7218 50.7857 27.5052 51.5663 26.6822 51.7832C26.1408 51.935 25.3394 51.8482 24.9279 51.523C24.5381 51.2194 24.2999 50.4821 24.2999 49.9183C24.2349 46.2969 24.2565 42.6322 24.2565 38.9892Z" fill="#E0E0E0"/>
<path d="M29.4544 38.9458C29.4544 37.0376 29.4544 35.1293 29.4544 33.1994C29.4544 31.9417 30.1258 31.161 31.2087 31.1827C32.2699 31.2044 32.9196 31.9633 32.9196 33.2427C32.9196 37.0593 32.9196 40.8975 32.9196 44.714C32.9196 45.9934 32.2699 46.774 31.2303 46.774C30.1475 46.7957 29.4761 46.015 29.4761 44.6489C29.4544 42.7623 29.4544 40.8541 29.4544 38.9458Z" fill="#E0E0E0"/>
<path d="M22.5239 39.0325C22.5239 40.9191 22.5239 42.7839 22.5239 44.6705C22.5239 46.015 21.8526 46.8173 20.7697 46.7956C19.7084 46.7739 19.0587 46.015 19.0587 44.7356C19.0587 40.9191 19.0587 37.0809 19.0587 33.2643C19.0587 31.9633 19.6868 31.226 20.748 31.2043C21.8309 31.1826 22.5023 31.9633 22.5023 33.3294C22.5239 35.216 22.5239 37.1242 22.5239 39.0325Z" fill="#E0E0E0"/>
</g>
<defs>
<clipPath id="clip0_168_133">
<rect width="52" height="52" fill="white"/>
</clipPath>
</defs>
</svg>
