<svg width="58" height="49" viewBox="0 0 58 49" fill="none" xmlns="http://www.w3.org/2000/svg">
<g clip-path="url(#clip0_170_138)">
<path d="M29.217 0C31.3621 0.56713 33.6702 0.907407 35.7881 1.7581C41.952 4.19676 48.0344 6.80556 54.1439 9.35764C55.0943 9.75463 56.0175 10.2934 56.8865 10.8605C58.3527 11.8814 58.3799 12.8455 56.9136 13.923C56.2076 14.4334 55.4473 14.8588 54.6599 15.1991C48.2516 17.8929 41.8705 20.5868 35.4351 23.224C31.172 24.9821 26.8818 24.9821 22.6187 23.224C16.1561 20.5584 9.69357 17.8646 3.25818 15.1424C2.38927 14.7737 1.54751 14.2633 0.814359 13.6678C-0.298937 12.7888 -0.271783 11.8814 0.868666 11.0307C1.60181 10.4919 2.38927 10.0098 3.23103 9.66956C9.88365 6.86227 16.5091 4.05498 23.216 1.38947C25.0625 0.652199 27.0718 0.48206 29.217 0Z" fill="#FF5959"/>
<path d="M28.7828 36.9202C26.4204 36.268 23.868 35.7859 21.5056 34.8501C15.6404 32.5533 9.85674 30.0579 4.04588 27.5625C2.93259 27.0805 1.84644 26.485 0.841762 25.7477C-0.244381 24.9821 -0.298688 23.9045 0.814608 23.224C2.71536 22.0897 4.75187 21.154 6.76124 20.2466C7.11423 20.0764 7.71161 20.3316 8.17322 20.5301C12.4092 22.2599 16.6451 23.9896 20.8811 25.7761C26.339 28.0446 31.7697 28.0446 37.2275 25.7477C41.2734 24.0463 45.3736 22.4584 49.4195 20.7003C50.5599 20.1898 51.5375 20.1615 52.6236 20.757C53.927 21.4659 55.339 22.0047 56.6423 22.7986C58.4888 23.9329 58.4888 25.0955 56.588 26.2014C55.0131 27.1088 53.3567 27.9028 51.7004 28.5834C46.1882 30.9086 40.676 33.2338 35.0824 35.3889C33.1273 36.1262 31.0365 36.3814 28.7828 36.9202Z" fill="#FF5959"/>
<path d="M28.9185 49C26.5562 48.3762 24.1395 47.9792 21.8858 47.1002C15.7762 44.6899 9.72097 42.0811 3.66573 39.5006C2.66105 39.0753 1.71067 38.5081 0.841759 37.8559C-0.244383 37.0336 -0.325844 36.0411 0.814605 35.3606C2.74251 34.1696 4.83333 33.2338 6.86985 32.2697C7.14138 32.1279 7.63015 32.4115 8.0103 32.5533C12.3277 34.3114 16.6451 36.0978 20.9625 37.8843C26.2846 40.0961 31.6067 40.1245 36.9288 37.941C41.3006 36.1546 45.6451 34.3397 50.0168 32.5816C50.5599 32.3548 51.3474 32.3831 51.8904 32.5816C53.4925 33.2338 55.0674 33.9428 56.5337 34.8218C58.4073 35.9277 58.4073 37.147 56.5609 38.2529C55.2032 39.0753 53.7369 39.7558 52.2706 40.3513C46.7041 42.6766 41.1648 45.0585 35.544 47.2419C33.5075 48.121 31.2537 48.4329 28.9185 49Z" fill="#E0E0E0"/>
</g>
<defs>
<clipPath id="clip0_170_138">
<rect width="58" height="49" fill="white"/>
</clipPath>
</defs>
</svg>
