<svg width="56" height="54" viewBox="0 0 56 54" fill="none" xmlns="http://www.w3.org/2000/svg">
<g clip-path="url(#clip0_174_142)">
<path d="M26.39 40.285C25.27 39.4714 24.1733 38.8205 23.2167 37.9837C21.1633 36.1938 20.1133 33.8459 19.88 31.1727C19.46 26.3143 19.3433 21.4327 19.9967 16.5743C20.6733 11.53 25.1533 7.57818 30.2633 7.53168C35.2333 7.46195 40.2033 7.48519 45.1967 7.53168C50.75 7.60142 55.1367 11.8554 55.6733 17.6901C56.0933 22.409 56.1167 27.1279 55.5333 31.8235C54.9033 36.8679 50.4 40.8894 45.22 40.9824C42.9333 41.0289 40.6233 40.9359 38.3367 41.0289C37.3567 41.0754 36.3533 41.2613 35.42 41.61C33.1333 42.4701 30.8933 43.4464 28.6533 44.3763C27.79 44.7482 26.95 44.9342 26.1567 44.2136C25.34 43.4464 25.5267 42.5399 25.8767 41.6333C26.0633 41.1451 26.25 40.6802 26.39 40.285ZM37.8933 17.7366C35.6533 17.7366 33.39 17.7366 31.15 17.7366C29.7733 17.7366 28.9333 18.434 28.91 19.5498C28.8867 20.6888 29.7267 21.4327 31.08 21.4327C35.5367 21.4327 40.0167 21.4327 44.4733 21.4327C45.8267 21.4327 46.6667 20.6888 46.6433 19.5498C46.62 18.434 45.78 17.7133 44.4267 17.7133C42.2333 17.7133 40.0633 17.7366 37.8933 17.7366ZM34.0433 25.1752C33.04 25.1752 32.0367 25.152 31.01 25.1752C29.7267 25.1985 28.91 25.9191 28.91 27.0117C28.8867 28.1042 29.7033 28.8946 30.9633 28.8946C33.0167 28.9178 35.07 28.9178 37.1233 28.8946C38.3833 28.8713 39.2 28.1042 39.1767 27.0117C39.1533 25.9191 38.3367 25.1985 37.0767 25.1752C36.05 25.152 35.0467 25.1752 34.0433 25.1752Z" fill="#FF5959"/>
<path d="M33.3436 4.6026C31.7802 4.71883 30.3102 4.92804 28.8636 4.85831C28.0936 4.83506 27.3936 4.23067 26.6236 3.99821C24.8036 3.4868 24.7802 3.5333 24.1736 5.25349C23.4502 7.34561 22.0269 8.71711 19.8802 9.29825C18.0136 9.83291 16.1469 10.2978 14.2802 10.8092C11.9469 11.4369 9.87024 10.9952 8.19024 9.25176C7.49024 8.53114 6.9769 8.5079 6.23024 9.13553C4.29357 10.7627 3.38357 12.8316 3.8269 15.3189C5.62357 25.5006 8.23691 35.4498 11.6436 45.213C13.1136 49.3973 15.9602 50.9547 20.2302 49.8157C24.8736 48.5604 29.5169 47.3284 34.1369 46.0266C34.9769 45.7942 35.9336 45.4687 36.5169 44.8876C37.6136 43.7253 38.8969 43.6556 40.3202 43.7253C40.8569 43.7485 41.3702 43.7253 42.0936 43.7253C40.8336 46.4683 38.9669 48.4209 36.2602 49.2345C30.8002 50.8618 25.3169 52.396 19.7636 53.6977C14.9102 54.8368 10.1036 52.0473 8.42357 47.3516C4.97024 37.6814 2.28691 27.7787 0.420238 17.6667C0.0235716 15.5049 -0.279762 13.3895 0.443572 11.2509C1.49357 8.11272 3.50024 5.74165 6.65024 4.78857C12.2736 3.09163 17.9669 1.58065 23.7069 0.185901C27.2069 -0.650948 31.4069 1.39468 33.3436 4.6026Z" fill="#E0E0E0"/>
</g>
<defs>
<clipPath id="clip0_174_142">
<rect width="56" height="54" fill="white"/>
</clipPath>
</defs>
</svg>
