<svg width="28" height="24" viewBox="0 0 28 24" fill="none" xmlns="http://www.w3.org/2000/svg">
<path d="M0 5.34094C9.35156 5.34094 18.6375 5.34094 28 5.34094C28 5.54928 28 5.72636 28 5.91386C28 10.7784 28 15.6326 28 20.4972C28 22.5597 26.5453 23.9868 24.3906 23.9868C17.4672 23.9972 10.5437 23.9972 3.60938 23.9868C1.45469 23.9868 0 22.5597 0 20.4972C0 15.6326 0 10.7784 0 5.91386C0 5.74719 0 5.57011 0 5.34094ZM9.05625 18.6534C11.7797 18.6639 13.9891 16.6014 14 14.0389C14.0109 11.4243 11.8344 9.34094 9.08906 9.35136C6.3875 9.35136 4.17812 11.4555 4.18906 14.018C4.2 16.5701 6.37656 18.643 9.05625 18.6534ZM22.4109 13.9555C22.4109 15.018 22.4109 16.0701 22.4109 17.1326C22.4109 17.6951 22.6734 18.0076 23.1109 18.0076C23.5156 17.9972 23.8 17.6847 23.8109 17.1639C23.8219 15.0493 23.8219 12.9347 23.8109 10.8201C23.8109 10.3097 23.5156 9.99719 23.0891 10.0076C22.6625 10.018 22.4219 10.3097 22.4109 10.8409C22.4109 11.8826 22.4109 12.9243 22.4109 13.9555ZM21 15.0284C21 14.2784 21.0109 13.5389 21 12.7889C21 12.3201 20.7156 12.0076 20.3219 11.9972C19.9391 11.9868 19.6 12.3097 19.6 12.7576C19.5891 14.2472 19.5891 15.7472 19.6 17.2368C19.6 17.6951 19.9281 18.0076 20.3219 18.0076C20.7156 17.9972 21 17.6847 21.0109 17.2159C21.0109 16.4868 21 15.7576 21 15.0284ZM18.1781 16.018C18.1781 15.5701 18.1891 15.1118 18.1781 14.6639C18.1672 14.2472 17.9156 14.0076 17.4891 14.018C17.0625 14.018 16.8219 14.268 16.8219 14.6847C16.8109 15.5701 16.8109 16.4555 16.8219 17.3409C16.8219 17.7576 17.0953 17.9972 17.5109 17.9972C17.9266 17.9972 18.1781 17.7472 18.1781 17.3305C18.1891 16.8826 18.1781 16.4555 18.1781 16.018Z" fill="#FF0000"/>
<path d="M27.9562 3.9659C18.6375 3.9659 9.35155 3.9659 0.0765521 3.9659C-0.328135 1.93465 1.27968 0.00756836 3.41249 0.00756836C10.4672 -0.00284831 17.5437 -0.00284831 24.6094 0.00756836C26.7094 0.00756836 28.1969 1.78882 27.9562 3.9659Z" fill="#FF0000"/>
<path d="M12.4797 14.6743C12.1953 16.2784 10.6641 17.3826 8.92499 17.3097C7.14218 17.2368 5.74218 15.9138 5.59999 14.1743C5.46874 12.6013 6.67186 11.1118 8.41093 10.768C8.41093 11.5805 8.41093 12.393 8.41093 13.1951C8.41093 13.4034 8.41093 13.6118 8.41093 13.8201C8.42186 14.4659 8.65155 14.6847 9.34061 14.6847C10.3797 14.6847 11.4078 14.6743 12.4797 14.6743Z" fill="#FF0000"/>
<path d="M12.4578 13.3097C11.5719 13.3097 10.7188 13.3097 9.84375 13.3097C9.84375 12.4659 9.84375 11.643 9.84375 10.8201C11.0688 10.9034 12.3375 12.1117 12.4578 13.3097Z" fill="#FF0000"/>
</svg>
