<svg width="44" height="34" viewBox="0 0 44 34" fill="none" xmlns="http://www.w3.org/2000/svg">
<path d="M34 34H43.2L31.6 16L27.1 23.3L34 34Z" fill="#5C184C"/>
<path d="M21.7 31.7L23.2 34H31.8L26 24.9L21.7 31.7Z" fill="#5C184C"/>
<path d="M21.4 17.7L17.1 24.5L21.7 31.7L26 24.9L21.4 17.7Z" fill="#E11A2C"/>
<path d="M21.3 14.3L27.1 23.3L31.6 16L21.3 0L11.5 15.6L16 22.8L21.3 14.3Z" fill="#E11A2C"/>
<path d="M11.5 15.6L0 34H9L16 22.8L11.5 15.6Z" fill="#821545"/>
<path d="M11.1 34H20.2L21.7 31.7L17.1 24.5L11.1 34Z" fill="#821545"/>
</svg>
