<svg width="253" height="442" viewBox="0 0 253 442" fill="none" xmlns="http://www.w3.org/2000/svg">
<g clip-path="url(#clip0_74_1158)">
<path d="M227.2 418C240 418.1 250.4 407.7 250.4 395L227.2 418ZM227.2 418L75.9 417.3L227.2 418ZM185.198 21.2H185.2C189.489 21.2 192.9 17.6626 192.9 13.3V7.99998C192.9 4.16749 195.985 1.10046 199.599 1.09998C199.599 1.09998 199.6 1.09998 199.6 1.09998L228.996 1.19997C228.996 1.19997 228.997 1.19997 228.997 1.19998C241.524 1.29843 251.598 11.4757 251.5 23.896L251.5 23.8978L249.9 394.998V395C249.9 407.423 239.725 417.598 227.204 417.5H227.202L75.9023 416.8H75.9C63.4768 416.8 53.3022 406.625 53.4 394.104L53.4 394.102L55 23.0021V23C55 10.5768 65.1746 0.402144 77.6961 0.499968L77.6961 0.499968L103.496 0.699983H103.5H113.8C117.398 0.699983 120.4 3.84908 120.4 7.69998V13C120.4 17.3488 123.797 20.9996 127.999 21C128 21 128 21 128 21L185.198 21.2Z" fill="white" stroke="#E0E0E0"/>
<path d="M201.9 117.5L199.6 114.8L206.4 111.2L175 100.6L185.6 131L189.5 125.9C189.5 125.9 209.8 161.7 189.5 183.4C169.3 205 145.5 200.3 145.5 200.3L150.1 215.3C150.1 215.3 187.5 218 207.6 184.1C227.6 150.4 201.9 117.5 201.9 117.5Z" fill="#E8505B"/>
<path d="M107.7 192.6L110 195.3L103.2 198.9L134.6 209.5L124 179.1L120.1 184.2C120.1 184.2 99.8 148.4 120.1 126.7C140.3 105.1 164.1 109.8 164.1 109.8L159.5 94.8C159.5 94.8 122.1 92.1 102 126C81.9 159.8 107.7 192.6 107.7 192.6Z" fill="#E8505B"/>
<path d="M201.9 117.5L199.6 114.8L206.4 111.2L175 100.6L185.6 131L189.5 125.9C189.5 125.9 209.8 161.7 189.5 183.4C169.3 205 145.5 200.3 145.5 200.3L150.1 215.3C150.1 215.3 187.5 218 207.6 184.1C227.6 150.4 201.9 117.5 201.9 117.5Z" fill="#E8505B"/>
<path d="M107.7 192.6L110 195.3L103.2 198.9L134.6 209.5L124 179.1L120.1 184.2C120.1 184.2 99.8 148.4 120.1 126.7C140.3 105.1 164.1 109.8 164.1 109.8L159.5 94.8C159.5 94.8 122.1 92.1 102 126C81.9 159.8 107.7 192.6 107.7 192.6Z" fill="#E8505B"/>
<g opacity="0.8">
<path d="M201.9 117.5L199.6 114.8L206.4 111.2L175 100.6L185.6 131L189.5 125.9C189.5 125.9 209.8 161.7 189.5 183.4C169.3 205 145.5 200.3 145.5 200.3L150.1 215.3C150.1 215.3 187.5 218 207.6 184.1C227.6 150.4 201.9 117.5 201.9 117.5Z" fill="white"/>
</g>
<g opacity="0.8">
<path d="M107.7 192.6L110 195.3L103.2 198.9L134.6 209.5L124 179.1L120.1 184.2C120.1 184.2 99.8 148.4 120.1 126.7C140.3 105.1 164.1 109.8 164.1 109.8L159.5 94.8C159.5 94.8 122.1 92.1 102 126C81.9 159.8 107.7 192.6 107.7 192.6Z" fill="white"/>
</g>
<path fill-rule="evenodd" clip-rule="evenodd" d="M172.7 137.3C174.2 138.9 175.5 140.7 176.5 142.6H182.5L184.7 152.3L179.3 154.9C179.2 157.1 178.9 159.2 178.2 161.3L182.5 165.6L177.2 174.1L171.5 172.1C169.9 173.6 168.1 174.9 166.2 175.9V181.9L156.5 184.1L153.9 178.7C151.7 178.6 149.6 178.3 147.5 177.6L143.3 181.9L134.8 176.6L136.8 170.9C135.3 169.3 134 167.5 133 165.6H127L124.8 155.9L130.2 153.3C130.3 151.1 130.6 149 131.3 146.9L127 142.7L132.3 134.2L138 136.2C139.6 134.7 141.4 133.4 143.3 132.4V126.4L153 124.2L155.6 129.6C157.8 129.7 159.9 130 162 130.7L166.2 126.4L174.7 131.7L172.7 137.3ZM160.8 145.3C155.8 142.2 149.2 143.7 146 148.7C142.9 153.7 144.4 160.3 149.4 163.5C154.4 166.6 161 165.1 164.2 160.1C167.3 155 165.8 148.4 160.8 145.3Z" fill="#E8505B"/>
<g opacity="0.6">
<path fill-rule="evenodd" clip-rule="evenodd" d="M160.8 145.3C155.8 142.2 149.2 143.7 146 148.7C142.9 153.7 144.4 160.3 149.4 163.5C154.4 166.6 161 165.1 164.2 160.1C167.3 155 165.8 148.4 160.8 145.3Z" fill="white"/>
</g>
<path d="M237.8 36.7C237.8 36.8 233.7 36.9 228.7 37C223.7 37 219.6 37 219.6 36.9C219.6 36.8 223.7 36.7 228.7 36.6C233.8 36.5 237.8 36.6 237.8 36.7Z" fill="#263238"/>
<path d="M237.9 41.2999C237.9 41.3999 233.8 41.4999 228.8 41.5999C223.8 41.5999 219.7 41.6 219.7 41.5C219.7 41.4 223.8 41.3 228.8 41.2C233.8 41.2 237.9 41.1999 237.9 41.2999Z" fill="#263238"/>
<path d="M237.9 45.9999C237.9 46.0999 233.8 46.1999 228.8 46.2999C223.8 46.2999 219.7 46.2999 219.7 46.1999C219.7 46.0999 223.8 45.9999 228.8 45.8999C233.8 45.7999 237.9 45.8999 237.9 45.9999Z" fill="#263238"/>
<path d="M73.1 51.3C73.1 51.3 73.2 51.3 73.5 51.3C73.8 51.3 74.1 51.3 74.5 51.3C75.5 51.3 76.8 51.2 78.4 51.2L78.3 51.3C78.3 50.4 78.3 49.5 78.3 48.5C78.3 48 78.3 47.5 78.3 46.9C78.4 46.3 78.9 45.8 79.6 45.7C80.2 45.7 80.8 45.7 81.4 45.7C82.1 45.8 82.7 46.5 82.7 47.2C82.7 48.5 82.7 49.9 82.7 51.3L82.6 51C84.2 51 85.8 51 87.5 51L87.3 51.2C87.3 49.2 87.3 47.2 87.2 45.1C87.2 44.6 87.2 44.1 87.2 43.6C87.2 43.1 86.9 42.8 86.5 42.4C85.8 41.7 85.1 41 84.4 40.3C83.7 39.6 83 38.9 82.3 38.3C82 38 81.6 37.6 81.3 37.3C81 37 80.7 36.6 80.3 36.5C79.9 36.4 79.5 36.5 79.2 36.7C78.9 36.9 78.6 37.3 78.3 37.6C77.7 38.2 77.1 38.8 76.6 39.4C75.5 40.5 74.4 41.6 73.5 42.6C73.1 43.1 73.3 43.8 73.3 44.4C73.3 45 73.3 45.6 73.3 46.1C73.3 47.2 73.3 48.1 73.3 48.9C73.3 49.6 73.3 50.2 73.3 50.7C73.1 51 73.1 51.2 73.1 51.3C73.1 51.3 73.1 51.1 73.1 50.7C73.1 50.2 73.1 49.7 73.1 49C73.1 48.2 73.1 47.3 73 46.2C73 45.6 73 45.1 73 44.4C73 44.1 73 43.8 73 43.4C73 43.1 73.1 42.7 73.3 42.4C74.2 41.3 75.3 40.3 76.4 39.1C77 38.5 77.5 37.9 78.1 37.3C78.4 37 78.7 36.7 79 36.4C79.4 36.1 79.9 36 80.4 36.1C80.9 36.2 81.3 36.6 81.6 36.9C81.9 37.2 82.3 37.6 82.6 37.9C83.3 38.6 84 39.2 84.7 39.9C85.4 40.6 86.1 41.3 86.8 42C87 42.2 87.2 42.3 87.3 42.6C87.5 42.8 87.5 43.1 87.6 43.4C87.6 43.9 87.6 44.4 87.6 45C87.6 47.1 87.6 49.1 87.6 51.1V51.3H87.4C85.7 51.3 84.1 51.3 82.5 51.3H82.3V51.1C82.3 49.7 82.3 48.3 82.3 47C82.3 46.4 81.9 45.9 81.3 45.8C80.7 45.8 80.1 45.8 79.5 45.8C79 45.8 78.5 46.3 78.4 46.7C78.4 47.2 78.4 47.8 78.4 48.3C78.4 49.3 78.4 50.2 78.4 51.1V51.2H78.3C76.7 51.2 75.4 51.2 74.4 51.2C74 51.2 73.7 51.2 73.4 51.2C73.2 51.3 73.1 51.3 73.1 51.3Z" fill="#263238"/>
<path d="M193 47.3C193 47.4 177.8 47.6 159 47.6C140.2 47.6 125 47.5 125 47.3C125 47.2 140.2 47 159 47C177.7 47 193 47.2 193 47.3Z" fill="#263238"/>
<path d="M191.2 363.4H119.7C110.6 363.4 103.2 356 103.2 346.9C103.2 337.8 110.6 330.4 119.7 330.4H191.2C200.3 330.4 207.7 337.8 207.7 346.9C207.7 356 200.3 363.4 191.2 363.4Z" fill="#E8505B"/>
<path d="M141.9 349.2L142.5 347.9C143.1 348.4 144.1 348.7 145 348.7C146 348.7 146.5 348.4 146.5 347.9C146.5 346.5 142.1 347.5 142.1 344.6C142.1 343.3 143.1 342.2 145.3 342.2C146.3 342.2 147.2 342.4 147.9 342.9L147.4 344.2C146.7 343.8 146 343.6 145.3 343.6C144.3 343.6 143.9 344 143.9 344.5C143.9 345.9 148.3 344.9 148.3 347.7C148.3 349 147.2 350.1 145.1 350.1C143.7 350.1 142.5 349.8 141.9 349.2Z" fill="white"/>
<path d="M153 349.7C152.7 350 152.1 350.1 151.6 350.1C150.2 350.1 149.4 349.4 149.4 348V345.6H148.5V344.3H149.4V342.9H151.1V344.3H152.6V345.6H151.1V348C151.1 348.5 151.4 348.8 151.8 348.8C152.1 348.8 152.3 348.7 152.5 348.6L153 349.7Z" fill="white"/>
<path d="M159.1 346.7V350H157.5V349.3C157.2 349.8 156.6 350.1 155.7 350.1C154.3 350.1 153.5 349.3 153.5 348.3C153.5 347.3 154.2 346.6 156 346.6H157.3C157.3 345.9 156.9 345.5 156 345.5C155.4 345.5 154.7 345.7 154.3 346L153.7 344.8C154.3 344.3 155.3 344.1 156.2 344.1C158.1 344.1 159.1 344.9 159.1 346.7ZM157.4 348.2V347.6H156.2C155.4 347.6 155.2 347.9 155.2 348.3C155.2 348.7 155.6 349 156.2 349C156.8 348.9 157.2 348.7 157.4 348.2Z" fill="white"/>
<path d="M164.3 344.1V345.7C164.2 345.7 164.1 345.7 163.9 345.7C163 345.7 162.3 346.2 162.3 347.3V350.1H160.6V344.3H162.2V345.1C162.7 344.4 163.4 344.1 164.3 344.1Z" fill="white"/>
<path d="M169.3 349.7C169 350 168.4 350.1 167.9 350.1C166.5 350.1 165.7 349.4 165.7 348V345.6H164.8V344.3H165.7V342.9H167.4V344.3H168.9V345.6H167.4V348C167.4 348.5 167.7 348.8 168.1 348.8C168.4 348.8 168.6 348.7 168.8 348.6L169.3 349.7Z" fill="white"/>
<path d="M223.4 285C223.4 285.1 192.7 285.3 154.8 285.3C116.9 285.3 86.2 285.2 86.2 285C86.2 284.9 116.9 284.7 154.8 284.7C192.7 284.7 223.4 284.8 223.4 285Z" fill="#263238"/>
<path d="M196.1 293.4C196.1 293.5 177.6 293.7 154.8 293.7C132 293.7 113.5 293.6 113.5 293.4C113.5 293.3 132 293.1 154.8 293.1C177.6 293.1 196.1 293.2 196.1 293.4Z" fill="#263238"/>
<path d="M6.20001 417.3L0.100006 439.7L19.9 441.5L24 420.1L6.20001 417.3Z" fill="#E8505B"/>
<path d="M20.4 439.7C20.4 439.8 19.3 439.7 17.5 439.6C15.7 439.5 13.3 439.2 10.6 438.8C8.00001 438.5 5.60001 438.1 3.70001 437.9C1.90001 437.7 0.800009 437.5 0.900009 437.4C0.900009 437.3 2.00001 437.4 3.80001 437.5C5.60001 437.6 8.00001 437.9 10.7 438.3C13.3 438.6 15.6 439 17.6 439.2C19.3 439.5 20.4 439.6 20.4 439.7Z" fill="#263238"/>
<g opacity="0.6">
<path d="M0.100006 439.7L19.9 441.5L20.2 439.9L0.700006 437.4L0.100006 439.5" fill="white"/>
</g>
<path d="M9.90001 438.7C9.80001 438.7 10.6 434.8 11.8 430.1C13 425.4 14 421.6 14.1 421.6C14.2 421.6 13.4 425.5 12.2 430.2C11.1 435 10 438.8 9.90001 438.7Z" fill="#263238"/>
<path d="M19.3 439.6C19.2 439.6 19.9 438 19.3 435.4C19 434.2 18.3 432.7 17.1 431.5C15.9 430.3 14.1 429.4 12.2 429.2C10.2 429 8.30001 429.5 6.90001 430.4C5.50001 431.3 4.50001 432.5 3.80001 433.7C2.50001 436 2.70001 437.7 2.60001 437.7C2.60001 437.7 2.60001 437.6 2.60001 437.4C2.60001 437.2 2.60001 436.9 2.60001 436.5C2.70001 435.8 2.90001 434.7 3.50001 433.5C4.10001 432.3 5.10001 431 6.60001 430C8.10001 429 10.1 428.5 12.2 428.7C14.3 428.9 16.1 429.8 17.4 431.1C18.7 432.4 19.3 433.9 19.6 435.2C19.9 436.5 19.8 437.6 19.6 438.4C19.5 438.8 19.4 439 19.4 439.2C19.4 439.5 19.3 439.6 19.3 439.6Z" fill="#263238"/>
<path d="M87.7 411.2L86.4 431.2C86.4 431.2 106.3 437.8 106.4 441.5L67.6 441.8L68.4 410.6L87.7 411.2Z" fill="#E8505B"/>
<g opacity="0.6">
<path d="M74.4 429.2C73.6 429.4 73.1 430.2 73.3 431C73.5 431.8 74.3 432.3 75 432.2C75.8 432 76.4 431.1 76.2 430.3C76 429.6 74.9 429 74.2 429.3" fill="white"/>
</g>
<g opacity="0.6">
<path d="M67.6 441.8L67.7 438.7L105.2 439.7C105.2 439.7 106.4 440.2 106.6 441.8H67.6Z" fill="white"/>
</g>
<path d="M87 431C87 431.2 86 431.2 85.1 431.8C84.1 432.4 83.6 433.2 83.5 433.1C83.3 433.1 83.6 431.9 84.8 431.3C85.9 430.6 87.1 430.8 87 431Z" fill="#263238"/>
<path d="M91 432.8C91 433 90.2 433.3 89.5 434.1C88.8 434.9 88.6 435.7 88.4 435.7C88.2 435.7 88.1 434.6 89 433.7C89.9 432.7 91 432.6 91 432.8Z" fill="#263238"/>
<path d="M93.2 437.8C93 437.8 92.8 436.9 93.3 435.9C93.8 434.9 94.7 434.5 94.8 434.7C94.9 434.9 94.3 435.4 93.9 436.2C93.5 437 93.4 437.7 93.2 437.8Z" fill="#263238"/>
<path d="M86.8 426.4C86.7 426.6 85.9 426.3 84.8 426.3C83.7 426.3 82.9 426.7 82.8 426.5C82.7 426.4 83.5 425.7 84.8 425.7C86 425.7 86.9 426.3 86.8 426.4Z" fill="#263238"/>
<path d="M87 422.4C87 422.5 86.2 422.6 85.1 422.3C84.5 422.2 83.8 422 83.1 421.6C82.7 421.4 82.4 421.2 82 421C81.8 420.9 81.6 420.8 81.4 420.5C81.2 420.3 81.1 419.8 81.3 419.5C81.5 419.2 81.9 419.1 82.1 419.1C82.4 419.1 82.6 419.2 82.8 419.2C83.2 419.3 83.6 419.5 84 419.7C84.7 420.1 85.3 420.5 85.8 420.9C86.7 421.8 87 422.5 86.9 422.5C86.8 422.6 86.4 422 85.5 421.2C85.1 420.8 84.5 420.5 83.8 420.2C83.5 420.1 83.1 419.9 82.7 419.8C82.3 419.7 81.9 419.7 81.8 419.8C81.8 419.9 81.8 419.9 81.8 420C81.9 420.1 82 420.2 82.2 420.3C82.5 420.5 82.9 420.7 83.2 420.9C83.9 421.3 84.5 421.5 85.1 421.7C86.3 422.2 87 422.3 87 422.4Z" fill="#263238"/>
<path d="M86.8 422.7C86.7 422.7 86.4 422 86.3 420.8C86.3 420.2 86.4 419.5 86.6 418.7C86.7 418.3 86.9 417.9 87.1 417.5C87.3 417.1 87.6 416.6 88.4 416.6C88.8 416.6 89.1 416.9 89.2 417.2C89.3 417.5 89.3 417.7 89.4 417.9C89.5 418.4 89.4 418.8 89.4 419.2C89.3 420 88.9 420.7 88.5 421.2C87.7 422.2 86.9 422.4 86.9 422.3C86.8 422.2 87.5 421.9 88.1 420.9C88.4 420.4 88.7 419.8 88.8 419.1C88.8 418.7 88.9 418.4 88.8 418C88.8 417.6 88.6 417.2 88.5 417.3C88.3 417.3 88 417.6 87.8 417.9C87.6 418.2 87.4 418.6 87.3 418.9C87 419.6 86.9 420.3 86.9 420.8C86.7 421.9 86.9 422.6 86.8 422.7Z" fill="#263238"/>
<path d="M87.7 237.9L28.6 237.4L0 425.1L24.5 428.2L56 273.9L65.4 428.8V429.2L92 428.8L87.7 237.9Z" fill="#263238"/>
<path d="M60.8 253.1C60.8 253.1 61.2 253.1 62 253C62.9 253 64.1 252.9 65.6 252.9C68.8 252.8 73.2 252.7 78.4 252.5H78.6V252.7C78.6 256.4 78.6 260.6 78.6 265V265.1L78.5 265.2C77.8 265.9 77 266.5 76.3 267.2C74 269.3 71.8 271.3 69.7 273.2L69.5 273.4L69.3 273.2C66 270.3 63.1 267.7 60.6 265.4L60.5 265.3V265.2C60.5 261.5 60.6 258.4 60.6 256.2C60.6 255.2 60.6 254.4 60.7 253.8C60.8 253.3 60.8 253.1 60.8 253.1C60.8 253.1 60.8 253.4 60.8 254C60.8 254.6 60.8 255.4 60.9 256.5C60.9 258.7 61 261.7 61 265.4L60.9 265.2C63.4 267.4 66.4 270.1 69.7 272.9H69.4C71.5 271 73.7 269 75.9 266.9C76.7 266.2 77.4 265.5 78.1 264.9L78 265.1C78 260.7 78 256.6 78 252.8L78.2 253C73 253 68.7 253.1 65.6 253.1C64.1 253.1 62.9 253.1 62 253.1C61.6 253.1 61.3 253.1 61 253.1C60.9 253.1 60.8 253.1 60.8 253.1Z" fill="#455A64"/>
<path d="M33 252.3C33 252.3 33.4 252.3 34.1 252.4C34.9 252.5 36 252.6 37.3 252.7C40.1 253 44.1 253.3 48.8 253.7H49V253.9C48.6 257.5 48.1 261.7 47.5 266.1V266.2L47.4 266.3C46.6 266.9 45.7 267.6 44.9 268.3C42.7 270 40.6 271.7 38.6 273.3L38.4 273.5L38.2 273.3C35.7 270.1 33.3 267.1 31.3 264.6L31.2 264.5V264.4C31.7 260.7 32.1 257.7 32.4 255.5C32.5 254.5 32.7 253.7 32.7 253.1C32.9 252.5 33 252.2 33 252.3C33 252.3 33 252.6 32.9 253.2C32.8 253.8 32.8 254.6 32.7 255.7C32.5 257.9 32.1 260.9 31.7 264.5V264.3C33.7 266.8 36.1 269.7 38.6 272.9H38.2C40.2 271.3 42.3 269.6 44.5 267.9C45.4 267.2 46.2 266.5 47.1 265.9L47 266C47.6 261.6 48.1 257.5 48.5 253.8L48.7 254.1C44.1 253.6 40.2 253.1 37.4 252.8C36.1 252.6 35 252.5 34.2 252.4C33.4 252.3 33 252.3 33 252.3Z" fill="#455A64"/>
<path d="M69.2 280.7C69.2 280.8 68.1 280.2 66.5 279.4C64.9 278.5 62.6 277.4 60.1 276.1C57.6 274.9 55.3 273.8 53.6 273C51.9 272.2 50.9 271.7 50.9 271.6C50.9 271.5 52 271.9 53.7 272.6C55.4 273.3 57.7 274.3 60.2 275.6C62.7 276.9 64.9 278.1 66.5 279C68.3 280 69.2 280.7 69.2 280.7Z" fill="#455A64"/>
<path d="M68.4 285.3C68.4 285.4 67.6 285.1 66.4 284.5C65.2 283.9 63.6 282.9 62.2 281.4C60.7 280 59.7 278.4 59.1 277.2C58.5 276 58.3 275.2 58.3 275.2C58.5 275.1 59.7 278.2 62.6 281C65.4 283.9 68.5 285.1 68.4 285.3Z" fill="#455A64"/>
<path d="M85.1 339.5C85.1 339.5 85.1 339.9 84.8 340.5C84.6 341.1 84.2 342 83.6 343C82.4 345 80 347.5 76.7 348.9C73.3 350.3 69.9 350.2 67.7 349.7C66.6 349.4 65.7 349.1 65.1 348.9C64.5 348.6 64.2 348.4 64.2 348.4C64.2 348.3 65.5 349 67.8 349.4C70 349.8 73.3 349.8 76.6 348.4C79.8 347 82.1 344.7 83.4 342.8C84.6 340.9 85 339.5 85.1 339.5Z" fill="#455A64"/>
<path d="M81.2 337.9C81.2 338 80.4 338.4 78.9 338.9C77.4 339.4 75.4 339.8 73 339.9C70.7 340 68.6 339.8 67.1 339.6C65.6 339.4 64.7 339.1 64.7 339C64.7 338.8 68.4 339.5 73 339.4C75.3 339.3 77.3 339 78.8 338.6C80.3 338.2 81.2 337.8 81.2 337.9Z" fill="#455A64"/>
<path d="M37.2 339C37.2 339 36.5 339.8 35.1 340.9C33.7 341.9 31.7 343.2 29.2 344.1C26.7 345 24.4 345.4 22.6 345.5C20.9 345.6 19.8 345.5 19.8 345.4C19.8 345.3 20.9 345.3 22.5 345.1C24.2 344.9 26.5 344.4 28.9 343.5C31.3 342.6 33.4 341.4 34.8 340.5C36.4 339.7 37.2 339 37.2 339Z" fill="#455A64"/>
<path d="M32.1 338.8C32.1 338.9 29.7 339.5 26.7 339.2C23.7 339 21.4 338 21.4 337.9C21.4 337.7 23.8 338.4 26.7 338.7C29.6 339 32 338.7 32.1 338.8Z" fill="#455A64"/>
<path d="M55.6 275.2C55.6 275.3 54.6 275.8 52.9 276.4C51.2 277 48.8 277.7 46.1 278.2C43.4 278.6 40.9 278.7 39.1 278.6C37.3 278.5 36.2 278.4 36.2 278.3C36.2 278.2 37.3 278.3 39.1 278.2C40.9 278.2 43.4 278 46 277.6C48.7 277.2 51.1 276.5 52.8 276C54.6 275.5 55.6 275.1 55.6 275.2Z" fill="#455A64"/>
<path d="M54 269.1C54.1 269.1 54.3 269.6 54.3 270.1C54.3 270.7 54.2 271.1 54 271.1C53.9 271.1 53.7 270.6 53.7 270.1C53.8 269.6 53.9 269.1 54 269.1Z" fill="#455A64"/>
<path d="M54 265C54.1 265 54.3 265.5 54.3 266C54.3 266.6 54.2 267 54 267C53.9 267 53.7 266.5 53.7 266C53.8 265.4 53.9 265 54 265Z" fill="#455A64"/>
<path d="M54.1 260.8C54.2 260.8 54.4 261.3 54.3 261.8C54.3 262.4 54.2 262.8 54 262.8C53.9 262.8 53.7 262.3 53.8 261.8C53.8 261.3 54 260.8 54.1 260.8Z" fill="#455A64"/>
<path d="M54.3 256.7C54.4 256.7 54.5 257.2 54.5 257.8C54.5 258.4 54.3 258.8 54.2 258.8C54.1 258.8 54 258.3 54 257.7C54 257.1 54.1 256.6 54.3 256.7Z" fill="#455A64"/>
<path d="M54.5 252.5C54.6 252.5 54.7 253 54.7 253.6C54.7 254.2 54.5 254.6 54.4 254.6C54.3 254.6 54.2 254.1 54.2 253.5C54.2 253 54.4 252.5 54.5 252.5Z" fill="#455A64"/>
<path d="M54.9 248.4C55 248.4 55.1 248.9 55.1 249.5C55.1 250.1 54.9 250.5 54.7 250.5C54.6 250.5 54.5 250 54.5 249.4C54.6 248.8 54.7 248.3 54.9 248.4Z" fill="#455A64"/>
<path d="M55.2 245C55.3 245 55.4 245.3 55.4 245.7C55.4 246.1 55.2 246.3 55.1 246.3C55 246.3 54.9 246 54.9 245.6C54.9 245.2 55 244.9 55.2 245Z" fill="#455A64"/>
<path d="M21.8 424.1C21.9 424.1 22 424.6 21.9 425.2C21.8 425.8 21.6 426.2 21.4 426.2C21.3 426.2 21.2 425.7 21.3 425.1C21.4 424.5 21.6 424.1 21.8 424.1Z" fill="#455A64"/>
<path d="M22.6 420C22.7 420 22.8 420.5 22.7 421.1C22.6 421.7 22.4 422.1 22.2 422.1C22.1 422.1 22 421.6 22.1 421C22.2 420.4 22.4 420 22.6 420Z" fill="#455A64"/>
<path d="M23.4 415.9C23.5 415.9 23.6 416.4 23.5 417C23.4 417.6 23.2 418 23 418C22.9 418 22.8 417.5 22.9 416.9C23 416.3 23.2 415.9 23.4 415.9Z" fill="#455A64"/>
<path d="M24.2 411.9C24.3 411.9 24.4 412.4 24.3 413C24.2 413.6 24 414 23.8 414C23.7 414 23.6 413.5 23.7 412.9C23.8 412.3 24.1 411.8 24.2 411.9Z" fill="#455A64"/>
<path d="M25 407.8C25.1 407.8 25.2 408.3 25.1 408.9C25 409.5 24.8 409.9 24.6 409.9C24.5 409.9 24.4 409.4 24.5 408.8C24.7 408.2 24.9 407.8 25 407.8Z" fill="#455A64"/>
<path d="M25.8 403.7C25.9 403.7 26 404.2 25.9 404.8C25.8 405.4 25.6 405.8 25.4 405.8C25.3 405.8 25.2 405.3 25.3 404.7C25.5 404.1 25.7 403.7 25.8 403.7Z" fill="#455A64"/>
<path d="M26.6 399.6C26.7 399.6 26.8 400.1 26.7 400.7C26.6 401.3 26.4 401.7 26.2 401.7C26.1 401.7 26 401.2 26.1 400.6C26.3 400 26.5 399.6 26.6 399.6Z" fill="#455A64"/>
<path d="M27.5 395.6C27.6 395.6 27.7 396.1 27.6 396.7C27.5 397.3 27.3 397.7 27.1 397.7C27 397.7 26.9 397.2 27 396.6C27.1 396 27.3 395.5 27.5 395.6Z" fill="#455A64"/>
<path d="M28.3 391.5C28.4 391.5 28.5 392 28.4 392.6C28.3 393.2 28.1 393.6 27.9 393.6C27.8 393.6 27.7 393.1 27.8 392.5C27.9 391.9 28.1 391.4 28.3 391.5Z" fill="#455A64"/>
<path d="M29.1 387.4C29.2 387.4 29.3 387.9 29.2 388.5C29.1 389.1 28.9 389.5 28.7 389.5C28.6 389.5 28.5 389 28.6 388.4C28.7 387.8 28.9 387.4 29.1 387.4Z" fill="#455A64"/>
<path d="M29.9 383.3C30 383.3 30.1 383.8 30 384.4C29.9 385 29.7 385.4 29.5 385.4C29.4 385.4 29.3 384.9 29.4 384.3C29.6 383.7 29.8 383.3 29.9 383.3Z" fill="#455A64"/>
<path d="M30.7 379.2C30.8 379.2 30.9 379.7 30.8 380.3C30.7 380.9 30.5 381.3 30.3 381.3C30.2 381.3 30.1 380.8 30.2 380.2C30.4 379.6 30.6 379.2 30.7 379.2Z" fill="#455A64"/>
<path d="M31.5 375.2C31.6 375.2 31.7 375.7 31.6 376.3C31.5 376.9 31.3 377.3 31.1 377.3C31 377.3 30.9 376.8 31 376.2C31.2 375.6 31.4 375.1 31.5 375.2Z" fill="#455A64"/>
<path d="M32.4 371.1C32.5 371.1 32.6 371.6 32.5 372.2C32.4 372.8 32.2 373.2 32 373.2C31.9 373.2 31.8 372.7 31.9 372.1C32 371.5 32.2 371.1 32.4 371.1Z" fill="#455A64"/>
<path d="M33.2 367C33.3 367 33.4 367.5 33.3 368.1C33.2 368.7 33 369.1 32.8 369.1C32.7 369.1 32.6 368.6 32.7 368C32.8 367.4 33 367 33.2 367Z" fill="#455A64"/>
<path d="M34 362.9C34.1 362.9 34.2 363.4 34.1 364C34 364.6 33.8 365 33.6 365C33.5 365 33.4 364.5 33.5 363.9C33.6 363.3 33.8 362.9 34 362.9Z" fill="#455A64"/>
<path d="M34.8 358.9C34.9 358.9 35 359.4 34.9 360C34.8 360.6 34.6 361 34.4 361C34.3 361 34.2 360.5 34.3 359.9C34.4 359.3 34.7 358.8 34.8 358.9Z" fill="#455A64"/>
<path d="M35.6 354.8C35.7 354.8 35.8 355.3 35.7 355.9C35.6 356.5 35.4 356.9 35.2 356.9C35.1 356.9 35 356.4 35.1 355.8C35.3 355.2 35.5 354.8 35.6 354.8Z" fill="#455A64"/>
<path d="M36.4 350.7C36.5 350.7 36.6 351.2 36.5 351.8C36.4 352.4 36.2 352.8 36 352.8C35.9 352.8 35.8 352.3 35.9 351.7C36.1 351.1 36.3 350.7 36.4 350.7Z" fill="#455A64"/>
<path d="M37.3 346.6C37.4 346.6 37.5 347.1 37.4 347.7C37.3 348.3 37.1 348.7 36.9 348.7C36.8 348.7 36.7 348.2 36.8 347.6C36.9 347 37.1 346.6 37.3 346.6Z" fill="#455A64"/>
<path d="M38.1 342.6C38.2 342.6 38.3 343.1 38.2 343.7C38.1 344.3 37.9 344.7 37.7 344.7C37.6 344.7 37.5 344.2 37.6 343.6C37.7 343 37.9 342.5 38.1 342.6Z" fill="#455A64"/>
<path d="M38.9 338.5C39 338.5 39.1 339 39 339.6C38.9 340.2 38.7 340.6 38.5 340.6C38.4 340.6 38.3 340.1 38.4 339.5C38.5 338.9 38.7 338.5 38.9 338.5Z" fill="#455A64"/>
<path d="M39.7 334.4C39.8 334.4 39.9 334.9 39.8 335.5C39.7 336.1 39.5 336.5 39.3 336.5C39.2 336.5 39.1 336 39.2 335.4C39.3 334.8 39.6 334.4 39.7 334.4Z" fill="#455A64"/>
<path d="M40.5 330.3C40.6 330.3 40.7 330.8 40.6 331.4C40.5 332 40.3 332.4 40.1 332.4C40 332.4 39.9 331.9 40 331.3C40.2 330.7 40.4 330.3 40.5 330.3Z" fill="#455A64"/>
<path d="M41.3 326.3C41.4 326.3 41.5 326.8 41.4 327.4C41.3 328 41.1 328.4 40.9 328.4C40.8 328.4 40.7 327.9 40.8 327.3C41 326.7 41.2 326.2 41.3 326.3Z" fill="#455A64"/>
<path d="M42.1 322.2C42.2 322.2 42.3 322.7 42.2 323.3C42.1 323.9 41.9 324.3 41.7 324.3C41.6 324.3 41.5 323.8 41.6 323.2C41.8 322.6 42 322.1 42.1 322.2Z" fill="#455A64"/>
<path d="M43 318.1C43.1 318.1 43.2 318.6 43.1 319.2C43 319.8 42.8 320.2 42.6 320.2C42.5 320.2 42.4 319.7 42.5 319.1C42.6 318.5 42.8 318.1 43 318.1Z" fill="#455A64"/>
<path d="M43.8 314C43.9 314 44 314.5 43.9 315.1C43.8 315.7 43.6 316.1 43.4 316.1C43.3 316.1 43.2 315.6 43.3 315C43.4 314.4 43.6 314 43.8 314Z" fill="#455A64"/>
<path d="M44.6 309.9C44.7 309.9 44.8 310.4 44.7 311C44.6 311.6 44.4 312 44.2 312C44.1 312 44 311.5 44.1 310.9C44.2 310.3 44.4 309.9 44.6 309.9Z" fill="#455A64"/>
<path d="M45.4 305.9C45.5 305.9 45.6 306.4 45.5 307C45.4 307.6 45.2 308 45 308C44.9 308 44.8 307.5 44.9 306.9C45 306.3 45.3 305.8 45.4 305.9Z" fill="#455A64"/>
<path d="M46.2 301.8C46.3 301.8 46.4 302.3 46.3 302.9C46.2 303.5 46 303.9 45.8 303.9C45.7 303.9 45.6 303.4 45.7 302.8C45.9 302.2 46.1 301.8 46.2 301.8Z" fill="#455A64"/>
<path d="M47 297.7C47.1 297.7 47.2 298.2 47.1 298.8C47 299.4 46.8 299.8 46.6 299.8C46.5 299.8 46.4 299.3 46.5 298.7C46.7 298.1 46.9 297.7 47 297.7Z" fill="#455A64"/>
<path d="M47.9 293.6C48 293.6 48.1 294.1 48 294.7C47.9 295.3 47.7 295.7 47.5 295.7C47.4 295.7 47.3 295.2 47.4 294.6C47.5 294 47.7 293.6 47.9 293.6Z" fill="#455A64"/>
<path d="M48.7 289.6C48.8 289.6 48.9 290.1 48.8 290.7C48.7 291.3 48.5 291.7 48.3 291.7C48.2 291.7 48.1 291.2 48.2 290.6C48.3 290 48.5 289.5 48.7 289.6Z" fill="#455A64"/>
<path d="M49.5 285.5C49.6 285.5 49.7 286 49.6 286.6C49.5 287.2 49.3 287.6 49.1 287.6C49 287.6 48.9 287.1 49 286.5C49.1 285.9 49.3 285.5 49.5 285.5Z" fill="#455A64"/>
<path d="M50.3 281.4C50.4 281.4 50.5 281.9 50.4 282.5C50.3 283.1 50.1 283.5 49.9 283.5C49.8 283.5 49.7 283 49.8 282.4C49.9 281.8 50.2 281.4 50.3 281.4Z" fill="#455A64"/>
<path d="M51.1 277.3C51.2 277.3 51.3 277.8 51.2 278.4C51.1 279 50.9 279.4 50.7 279.4C50.6 279.4 50.5 278.9 50.6 278.3C50.8 277.7 51 277.3 51.1 277.3Z" fill="#455A64"/>
<path d="M132.6 151.6C132.6 151.6 139.5 141.2 139.7 141.1C139.7 141.1 145.9 130.6 148 130.6C150.1 130.6 149.3 132.7 147.2 136.5C145.3 139.8 145.1 141.9 145.1 141.9L150.2 145C150.2 145 153.6 143.7 153.8 146.9C153.8 148 153.6 149.3 153.2 151.2C153 152.3 152.5 153.6 151.4 153.1C150.9 152.9 150.5 152.5 150.5 151.8C150.4 149.9 150.8 149.2 150.5 149.2C150.2 149.2 146.8 159.1 146.8 159.1L132.6 151.6Z" fill="#FFBE9D"/>
<path d="M146.6 143.5C147.1 143.1 147.7 142.8 148.2 142.5C148.8 142.2 149.4 142.1 150.1 142.2C150.5 142.3 150.9 142.4 151.1 142.8C151.4 143.2 151.5 143.9 151.3 144.4C151.1 144.9 150.8 145.4 150.5 145.8" fill="#FFBE9D"/>
<path d="M144.3 141.4C144.8 141.1 145.3 140.7 145.9 140.5C146.5 140.3 147.1 140.1 147.7 140.2C148.1 140.3 148.4 140.4 148.7 140.7C149 141.1 149 141.7 148.9 142.2C148.7 142.7 147.6 143.8 147.3 144.3" fill="#FFBE9D"/>
<path d="M135 145.8L125 167.2L136 178.5L141.7 162.6C141.7 162.6 144.8 163.2 146 161.2C147.4 158.9 149.2 152.3 149.2 152.3L135 145.8Z" fill="#FFBE9D"/>
<path d="M142.2 145.2C142.1 145.2 142.3 143.7 143.4 142.2C143.9 141.5 144.6 141 145.1 140.7C145.6 140.4 146 140.3 146 140.4C146.1 140.6 144.8 141.2 143.8 142.5C142.8 143.9 142.4 145.2 142.2 145.2Z" fill="#EB996E"/>
<path d="M153.3 145.3C153.3 145.4 152.9 145.2 152.3 145.1C151.7 145 150.9 145 150.1 145.4C149.3 145.8 148.8 146.5 148.5 147C148.1 147.5 147.9 147.8 147.8 147.8C147.7 147.8 147.9 147.4 148.1 146.8C148.4 146.2 148.9 145.4 149.8 144.9C150.7 144.4 151.7 144.5 152.3 144.7C153 144.9 153.3 145.2 153.3 145.3Z" fill="#EB996E"/>
<path d="M149.6 142.2C149.6 142.4 148.4 142.6 147.3 143.6C146.2 144.6 145.6 145.7 145.5 145.7C145.4 145.7 145.7 144.3 147 143.2C147.6 142.7 148.3 142.3 148.8 142.2C149.2 142.1 149.5 142.2 149.6 142.2Z" fill="#EB996E"/>
<path d="M152 146.9C152.1 146.8 152.4 147.7 151.9 148.5C151.4 149.3 150.5 149.5 150.5 149.3C150.5 149.2 151 148.9 151.4 148.2C151.8 147.5 151.9 146.9 152 146.9Z" fill="#EB996E"/>
<path d="M132.7 151.2C132.7 151.2 132.4 144.8 133.9 143.4C135.4 142 139.9 143.5 139.9 143.5" fill="#FFBE9D"/>
<path d="M140.4 140.4C140.5 140.5 139.5 142.1 138.1 144C136.7 145.9 135.5 147.4 135.4 147.3C135.3 147.2 136.3 145.6 137.7 143.7C139.1 141.8 140.3 140.3 140.4 140.4Z" fill="#EB996E"/>
<path d="M51.9 92L51.7 141.8L73.1 142.8L73.7 130.7C73.7 130.7 81.3 132.2 83.2 125.2C84.5 120.7 84.1 85.9 84.1 85.9L51.9 92Z" fill="#FFBE9D"/>
<path d="M87 89.4C83.6 90.4 82.9 95.9 82.9 95.9L77.6 107.6C74.9 105.5 71.3 105.6 70.6 110.3C70.1 113.7 74.4 114.4 74.4 114.4C71.9 118.6 70.3 122 66.7 126C62.8 130.3 60.6 130.8 56.4 130.8H51.7C51.7 130.8 49.4 123.4 45.2 104.9C40.5 84.4 64.8 87 69.3 81.8C76.7 73.2 97.6 86.4 87 89.4Z" fill="#263238"/>
<path d="M45.7 106.8C41.8 104.2 41.4 96.8 43.7 92.3C46 87.9 50.8 84.9 55.8 84.8C56.5 84.8 57.2 84.8 57.8 84.6C58.7 84.2 59.3 83.4 59.9 82.6C63.4 78 66.9 73.5 73.4 73.5C74.5 73.5 75.6 73.5 77.5 74.5C78.4 75 79.8 76.7 80 77.8C81.2 77.2 82.5 76.6 83.8 76.4C85.1 76.2 86.6 76.4 87.6 77.3C88.6 78.2 89 79.9 88.2 81C90.4 80.9 92.5 82.7 92.9 84.9C93.2 87.1 90.1 88.6 89.8 88.8C89.8 88.8 91.5 92.4 87.4 94.6C85.7 95.5 83.6 94.4 83.4 94.3" fill="#263238"/>
<path d="M61.3 111.6C61.4 111.6 61.6 113.3 61.2 115.4C60.7 117.5 59.8 118.9 59.7 118.9C59.6 118.8 60.2 117.3 60.7 115.3C61.1 113.3 61.1 111.6 61.3 111.6Z" fill="#455A64"/>
<path d="M63.9 109.2C64 109.2 64.1 110.9 63.7 112.8C63.3 114.8 62.7 116.3 62.6 116.3C62.5 116.3 62.8 114.7 63.2 112.7C63.5 110.8 63.7 109.2 63.9 109.2Z" fill="#455A64"/>
<path d="M71.3 101C71.4 101.1 70.7 101.5 70 102.4C69.2 103.3 68.3 104.7 67.7 106.4C67.1 108.1 66.7 109.7 66.4 110.9C66.1 112.1 65.9 112.8 65.9 112.8C65.8 112.8 65.9 112 66.1 110.8C66.3 109.6 66.6 107.9 67.2 106.2C67.9 104.5 68.8 103 69.7 102.2C70.5 101.2 71.2 100.9 71.3 101Z" fill="#455A64"/>
<path d="M74.2 95.4C74.3 95.4 74.5 95.9 74.6 96.7C74.7 97.6 74.7 98.8 74.4 100.1C74.1 101.4 73.5 102.5 73 103.2C72.5 103.9 72 104.2 72 104.2C71.9 104.1 73.3 102.5 73.9 100C74.6 97.5 74.1 95.4 74.2 95.4Z" fill="#455A64"/>
<path d="M48.7 107.8C48.6 107.9 48 107.7 47.2 107.3C46.5 106.9 45.9 106.5 46 106.3C46.1 106.2 46.7 106.4 47.5 106.8C48.3 107.2 48.8 107.7 48.7 107.8Z" fill="#455A64"/>
<path d="M59.1 102.5C59.2 102.5 59.2 103.6 58.5 104.7C57.8 105.8 56.9 106.4 56.9 106.2C56.8 106.1 57.5 105.4 58.1 104.4C58.6 103.4 58.9 102.4 59.1 102.5Z" fill="#455A64"/>
<path d="M62.2 100.8C62.3 100.8 62.1 102.1 61.2 103.4C60.3 104.7 59.3 105.4 59.2 105.3C59.1 105.2 60 104.3 60.8 103.1C61.7 101.9 62.1 100.7 62.2 100.8Z" fill="#455A64"/>
<path d="M78 79.9C78 79.9 77.6 79.6 76.8 79.2C76 78.8 74.8 78.3 73.2 78.3C71.6 78.3 69.7 78.6 67.9 79.7C66.1 80.8 64.6 82.6 63.4 84.7C62.6 86.2 62 87.9 61.6 89.4L61.5 89.7L61.2 89.5C59.6 88.7 57.9 88.3 56.4 88.3C54.9 88.3 53.6 88.5 52.5 88.9C50.4 89.6 49.4 90.6 49.3 90.5C49.3 90.5 49.5 90.2 50 89.9C50.5 89.5 51.3 89.1 52.3 88.6C53.4 88.2 54.7 87.9 56.3 87.9C57.9 87.9 59.6 88.2 61.3 89.1L60.9 89.3C61.3 87.8 61.9 86.1 62.7 84.5C63.9 82.3 65.5 80.5 67.4 79.3C69.3 78.2 71.3 77.8 72.9 77.9C74.5 78 75.8 78.5 76.6 79C77 79.3 77.3 79.5 77.4 79.7C77.9 79.8 78 79.9 78 79.9Z" fill="#455A64"/>
<path d="M89.3 82.6C89.3 82.6 89.9 82.4 90.5 83.2C90.8 83.5 91.1 84.1 91 84.8C90.9 85.5 90.5 86.2 89.8 86.6C89.1 87 88.1 87.2 87.2 87C86.3 86.8 85.4 86.3 84.5 85.7C83.7 85.1 82.8 84.4 81.9 83.9C80.9 83.4 79.9 83 78.7 82.8C76.4 82.4 74.2 82.6 72.3 83.2C70.4 83.8 68.8 84.7 67.5 85.6C65 87.4 63.8 88.9 63.7 88.8C63.7 88.8 64 88.4 64.5 87.7C65.1 87.1 66 86.2 67.2 85.2C68.4 84.3 70.1 83.3 72 82.6C74 81.9 76.3 81.7 78.7 82.1C79.9 82.3 81 82.7 82 83.3C83 83.9 83.8 84.6 84.7 85.2C85.5 85.8 86.3 86.3 87.2 86.5C88 86.7 88.9 86.6 89.5 86.2C90.1 85.9 90.6 85.3 90.6 84.7C90.7 84.1 90.5 83.6 90.2 83.3C89.8 82.6 89.2 82.7 89.3 82.6Z" fill="#455A64"/>
<path d="M29.2 147L10.1 179C8 182.7 6 186.7 4.1 190.9C2.6 194.9 3.5 200 6.1 203.3L5.6 202.5C7.7 205.1 10.9 206.6 14.3 206.6H14.8C19.2 206.6 23.2 204 25 199.9L31.1 190.6L29.2 147Z" fill="#E8505B"/>
<path d="M86.7 140.9C81.6 138.3 76.5 137.7 71 137.5C64.6 137.3 55.5 136.4 48.6 137.2C48.6 137.2 28.9 138.7 27.5 152.2L30.2 215.7L25.7 242.6L88.9 244.5L88.4 212.8C89.2 196.3 87.5 172.9 87.5 172.9C88.5 164 93.3 160 94 154.3C94.7 149.1 91.3 143.2 86.7 140.9Z" fill="#E8505B"/>
<path d="M68.9 216.6C68.9 216.6 68.6 217 68 217.5C67.4 218 66.4 218.7 65.1 219.5C62.6 221 58.6 222.5 54 222.5C49.4 222.6 45.4 221.2 42.8 219.8C41.5 219.1 40.5 218.4 39.8 217.9C39.1 217.4 38.8 217.1 38.8 217.1C38.9 217 40.3 218.2 42.9 219.5C45.5 220.8 49.4 222 53.9 222C58.3 221.9 62.2 220.5 64.8 219.2C67.5 217.7 68.9 216.5 68.9 216.6Z" fill="#263238"/>
<path d="M27.4 152.9C27.4 152.9 27.4 153.1 27.5 153.5C27.5 154 27.6 154.6 27.6 155.3C27.7 156.9 27.8 159.1 27.9 161.8C28.1 167.4 28.5 175 28.8 183.3C29.2 191.7 29.5 199.3 29.8 204.8C29.9 207.5 30.1 209.7 30.1 211.3C30.1 212 30.2 212.6 30.2 213.1C30.2 213.5 30.2 213.7 30.2 213.7C30.2 213.7 30.1 213.5 30.1 213.1C30.1 212.6 30 212.1 29.9 211.3C29.8 209.8 29.6 207.5 29.4 204.8C29 199.3 28.6 191.7 28.3 183.3C27.9 174.9 27.7 167.3 27.6 161.7C27.5 159 27.5 156.8 27.5 155.2C27.5 154.5 27.5 153.9 27.5 153.4C27.4 153.1 27.4 152.9 27.4 152.9Z" fill="#263238"/>
<path d="M23.5 156.2C23.5 156.2 23.4 156.4 23.3 156.7C23.1 157.1 22.9 157.5 22.6 158.1C22 159.3 21 161 19.8 163C17.4 167.1 13.8 172.7 10.1 179C8.30001 182.2 6.70001 185.3 5.40001 188.1C4.10001 190.9 3.40001 193.7 3.60001 196.1C3.70001 198.5 4.40001 200.3 5.10001 201.5C5.70001 202.7 6.20001 203.2 6.20001 203.3C6.20001 203.3 6.10001 203.2 5.80001 202.9C5.60001 202.6 5.20001 202.2 4.90001 201.6C4.20001 200.5 3.40001 198.6 3.20001 196.2C3.00001 193.8 3.60001 190.9 5.00001 188C6.30001 185.1 7.90001 182 9.70001 178.8C13.4 172.5 17 166.9 19.5 162.9C20.7 160.9 21.7 159.3 22.4 158.1C22.7 157.6 23 157.1 23.2 156.8C23.4 156.4 23.5 156.2 23.5 156.2Z" fill="#263238"/>
<path d="M139.8 173.7L125.2 164.1L116 180.1C116 180.1 103.2 162.3 97.4 151.9C92 142.3 85.1 139.7 81.8 139C80.8 138.8 79.9 139.6 80 140.6L85 175.2C85.6 177 96.2 192.3 102.1 200C111.9 212.9 126.5 204.6 130.4 195.6C133.6 188.5 138.5 177.7 139.8 173.7Z" fill="#E8505B"/>
<path d="M120.1 194.5C120 194.5 119.9 193.6 119.8 192.2C119.7 190.8 119.5 188.8 119.1 186.8C118.7 184.7 117.9 182.9 117.2 181.7C116.5 180.5 115.9 179.8 116 179.8C116 179.8 116.7 180.3 117.5 181.5C118.3 182.7 119.1 184.5 119.6 186.7C120.1 188.8 120.1 190.8 120.2 192.2C120.2 193.7 120.2 194.5 120.1 194.5Z" fill="#263238"/>
<path d="M124.4 187.4C124.3 187.4 124.2 186.7 123.9 185.5C123.5 184.4 122.8 182.9 121.6 181.6C120.4 180.3 118.9 179.5 117.7 179.5C116.5 179.4 115.9 179.9 115.8 179.8C115.7 179.8 116.4 179.1 117.7 179.1C119 179 120.7 179.9 122 181.2C123.3 182.6 124 184.2 124.3 185.4C124.5 186.6 124.5 187.4 124.4 187.4Z" fill="#263238"/>
<path d="M80.7 143.3C80.7 143.3 80.6 143.5 80.3 143.7C80.2 143.8 80 144 79.9 144.2C79.7 144.4 79.5 144.6 79.3 144.9C78.5 145.9 77.4 147.6 76.8 149.8C76.1 152 75.8 154.9 76.2 158C76.4 159.5 76.8 161.1 77.5 162.7C78.1 164.3 79 165.8 79.9 167.4C83.5 173.7 87.2 179.1 89.8 183.1C91.1 185 92.2 186.6 93 187.7C93.8 188.8 94.2 189.4 94.2 189.4C94.2 189.4 94.1 189.3 93.8 189C93.6 188.7 93.2 188.3 92.8 187.8C92 186.8 90.8 185.2 89.4 183.3C86.6 179.4 82.9 174 79.3 167.7C78.4 166.1 77.6 164.5 76.9 162.9C76.2 161.3 75.8 159.7 75.6 158.1C75.2 154.9 75.5 152 76.3 149.8C77 147.5 78.2 145.9 79 144.9C79.2 144.7 79.4 144.4 79.6 144.2C79.8 144 79.9 143.9 80.1 143.8C80.6 143.4 80.7 143.3 80.7 143.3Z" fill="#263238"/>
<path d="M80.8 235.2C80.8 235.2 80.7 235.3 80.4 235.4C80 235.5 79.6 235.7 79.1 235.9C78.5 236.1 77.8 236.3 77 236.5C76.2 236.7 75.2 237 74.2 237.2C72.1 237.7 69.6 238.2 66.7 238.6C63.9 239 60.7 239.2 57.4 239.2C54.1 239.2 51 239 48.1 238.6C45.3 238.2 42.7 237.8 40.6 237.3C39.5 237.1 38.6 236.8 37.8 236.6C37 236.4 36.3 236.2 35.7 236C35.2 235.8 34.7 235.7 34.4 235.6C34.1 235.5 33.9 235.4 34 235.4C34 235.4 34.2 235.4 34.5 235.5C34.9 235.6 35.3 235.7 35.8 235.8C36.4 236 37.1 236.2 37.9 236.3C38.7 236.5 39.7 236.7 40.7 236.9C42.8 237.4 45.3 237.8 48.2 238.1C51 238.4 54.1 238.6 57.4 238.6C60.7 238.6 63.8 238.4 66.6 238C69.4 237.6 71.9 237.2 74 236.8C75.1 236.6 76 236.3 76.8 236.1C77.6 235.9 78.3 235.7 78.9 235.5C79.4 235.4 79.9 235.2 80.2 235.1C80.6 235.2 80.8 235.2 80.8 235.2Z" fill="#263238"/>
<g opacity="0.3">
<path d="M26.3 197.9L29.2 193.5L27.7 158.6L26.3 197.9Z" fill="black"/>
</g>
<g opacity="0.3">
<path d="M75.6 156.2C75.6 156.2 75.7 168.9 78.6 174C81.5 179 88.4 189.9 88.4 189.3C88.4 188.7 88 180.3 88 180.3C88 180.3 75.7 163.4 75.6 156.2Z" fill="black"/>
</g>
<path d="M23.8 199C23.8 199 23.5 199.2 22.9 199.3C22.3 199.4 21.4 199.3 20.3 199C19.3 198.6 18.1 197.9 17.1 196.9C16.1 195.8 15.2 194.5 14.4 193C13.6 191.6 12.9 190.2 12 189C11.2 187.9 10.3 187 9.40001 186.4C7.60001 185.2 6.20001 185.3 6.20001 185.2C6.20001 185.2 6.50001 185.1 7.10001 185.2C7.70001 185.3 8.60001 185.5 9.50001 186.1C10.4 186.7 11.4 187.6 12.3 188.7C13.2 189.9 13.9 191.3 14.7 192.7C15.5 194.1 16.3 195.5 17.3 196.5C18.3 197.5 19.3 198.2 20.3 198.6C22.4 199.4 23.8 198.9 23.8 199Z" fill="white"/>
<path d="M27.6 177.1C27.5 177.1 27.3 176.3 26.7 175.2C26.1 174.1 25 172.6 23.5 171.5C21.9 170.3 20.3 169.7 19 169.4C17.8 169.1 16.9 169.1 16.9 169C16.9 168.9 17.7 168.8 19 169C20.3 169.2 22.1 169.8 23.7 171C25.3 172.2 26.4 173.8 26.9 175C27.6 176.2 27.7 177.1 27.6 177.1Z" fill="white"/>
<path d="M75.8 158.4C75.8 158.5 75.1 158.3 73.9 158.2C72.7 158.1 70.8 158.1 68.7 158.7C66.5 159.2 64.1 160.2 61.4 161.6C58.8 163 56 164.7 52.9 166.1C49.8 167.6 46.5 168.3 43.5 168.5C40.5 168.7 37.8 168.3 35.6 167.8C33.4 167.3 31.7 166.5 30.6 166C30 165.7 29.6 165.5 29.3 165.3C29 165.1 28.9 165 28.9 165C28.9 165 29.5 165.3 30.7 165.8C31.8 166.3 33.5 167 35.7 167.5C37.9 168 40.5 168.3 43.5 168.1C46.4 167.9 49.6 167.2 52.7 165.7C55.8 164.3 58.6 162.6 61.2 161.2C63.8 159.8 66.4 158.8 68.6 158.4C70.8 157.9 72.7 157.9 73.9 158.1C74.5 158.2 75 158.3 75.3 158.4C75.7 158.3 75.9 158.3 75.8 158.4Z" fill="white"/>
<path d="M88.1 193C88.1 193 87.9 193.1 87.5 193.2C87.1 193.3 86.6 193.5 85.8 193.6C84.3 193.9 82.1 194.2 79.4 194.1C76.7 194 73.5 193.6 70 192.8C66.5 192 62.7 190.9 58.8 189.7C54.9 188.5 51 187.6 47.5 187.2C44 186.8 40.8 186.7 38.1 187.1C35.4 187.5 33.4 188.2 32 188.8C30.6 189.4 29.9 189.8 29.9 189.8C29.9 189.8 30.1 189.7 30.4 189.5C30.8 189.3 31.2 189 31.9 188.7C33.3 188 35.4 187.3 38 186.8C40.7 186.3 44 186.3 47.5 186.8C51.1 187.2 54.9 188.1 58.9 189.3C62.9 190.5 66.6 191.6 70.1 192.4C73.6 193.2 76.7 193.7 79.4 193.8C82.1 193.9 84.3 193.7 85.7 193.5C87.3 193.1 88.1 192.9 88.1 193Z" fill="white"/>
<path d="M88.5 212.7C88.5 212.9 85.5 211 80.2 210.5C77.5 210.2 74.3 210.4 70.8 210.8C67.3 211.3 63.5 212.1 59.4 212.8C55.4 213.6 51.5 214.2 48 214.5C44.4 214.8 41.2 214.8 38.5 214.4C35.8 214.1 33.7 213.5 32.3 212.9C31.6 212.7 31.1 212.4 30.7 212.2C30.3 212 30.2 211.9 30.2 211.9C30.2 211.9 31 212.2 32.4 212.7C33.8 213.2 35.9 213.7 38.6 214C41.3 214.3 44.5 214.3 48 214C51.5 213.7 55.4 213 59.4 212.2C63.4 211.4 67.3 210.7 70.8 210.2C74.3 209.8 77.6 209.6 80.3 210C83 210.3 85.1 211 86.5 211.6C87.2 211.9 87.7 212.2 88.1 212.3C88.3 212.6 88.5 212.7 88.5 212.7Z" fill="white"/>
<path d="M56 238.2C56 238.2 55.6 238 55 237.6C54.4 237.2 53.5 236.5 52.4 235.8C50.1 234.3 47 232.4 43.3 230.6C39.6 228.8 36.1 227.5 33.5 226.6C32.2 226.2 31.2 225.8 30.5 225.6C29.8 225.4 29.4 225.2 29.4 225.2C29.4 225.2 29.8 225.2 30.6 225.4C31.3 225.6 32.4 225.8 33.7 226.2C36.3 227 39.8 228.2 43.6 230C47.3 231.8 50.5 233.8 52.7 235.4C53.8 236.2 54.7 236.9 55.3 237.3C55.7 237.9 56 238.2 56 238.2Z" fill="white"/>
<path d="M86.8 237.9C86.8 237.9 86.1 238.5 84.7 239C83.3 239.5 81.3 239.9 79.1 239.9C76.9 239.8 74.9 239.3 73.6 238.7C72.3 238.1 71.5 237.6 71.6 237.5C71.6 237.4 72.4 237.9 73.8 238.3C75.1 238.8 77.1 239.3 79.2 239.3C81.4 239.4 83.3 239 84.7 238.6C85.9 238.2 86.7 237.8 86.8 237.9Z" fill="white"/>
<path d="M108.7 171.9C108.7 171.9 108.7 172.2 108.6 172.8C108.5 173.4 108.1 174.1 107.4 174.9C106.7 175.7 105.8 176.5 104.6 177.2C103.4 177.9 102 178.4 100.6 179C99.2 179.6 97.8 180.2 96.8 181C95.8 181.8 95 182.7 94.5 183.6C93.6 185.4 94 186.7 93.9 186.7C93.9 186.7 93.7 186.4 93.7 185.8C93.7 185.2 93.8 184.4 94.2 183.4C94.6 182.5 95.4 181.4 96.5 180.6C97.6 179.7 99 179.1 100.4 178.5C101.8 177.9 103.2 177.4 104.4 176.8C105.6 176.2 106.5 175.4 107.2 174.7C108.4 173.2 108.6 171.8 108.7 171.9Z" fill="white"/>
<path d="M96.4 150.7C96.4 150.7 96.4 151 96.2 151.6C96.1 151.9 96 152.2 95.9 152.6C95.8 153 95.6 153.5 95.4 153.9C95 154.9 94.4 156 93.6 157.2C92.8 158.4 91.8 159.6 90.6 160.7C89.4 161.8 88.1 162.7 86.9 163.5C85.7 164.2 84.5 164.7 83.5 165.1C83 165.3 82.5 165.4 82.1 165.5C81.7 165.6 81.3 165.7 81 165.7C80.4 165.8 80.1 165.8 80.1 165.8C80.1 165.7 81.4 165.5 83.3 164.7C84.3 164.3 85.4 163.8 86.6 163C87.8 162.3 89 161.4 90.2 160.3C91.4 159.2 92.3 158 93.1 156.9C93.9 155.8 94.5 154.7 95 153.7C95.9 151.9 96.3 150.6 96.4 150.7Z" fill="white"/>
<path d="M77.1 137.5C77.1 137.5 76.6 137.8 75.6 138.2C74.7 138.6 73.3 139.1 71.5 139.6C69.8 140.2 67.6 140.7 65.3 141.2C62.9 141.7 60.3 142 57.5 142.3C54.7 142.5 52 142.5 49.6 142.4C47.2 142.3 45 142 43.2 141.7C41.4 141.4 39.9 141.1 38.9 140.9C37.9 140.7 37.4 140.5 37.4 140.5C37.4 140.5 38 140.6 39 140.7C40 140.9 41.5 141.1 43.3 141.4C45.1 141.6 47.3 141.8 49.7 141.9C52.1 142 54.8 142 57.5 141.8C60.3 141.6 62.9 141.2 65.3 140.8C67.7 140.3 69.8 139.8 71.5 139.3C73.3 138.8 74.7 138.4 75.6 138C76.6 137.7 77.1 137.5 77.1 137.5Z" fill="white"/>
<path d="M116.4 181.1C116.4 181.1 116.6 181.4 116.8 182.1C117 182.8 117.2 183.8 117.2 185C117.4 187.5 116.9 190.9 116.2 194.6C115.9 196.4 115.5 198.2 114.8 199.7C114.2 201.2 113.3 202.5 112.5 203.4C111.6 204.3 110.8 204.8 110.1 205.1C109.5 205.4 109.1 205.4 109.1 205.4C109 205.3 110.6 204.9 112.2 203.1C113 202.2 113.8 201 114.3 199.5C114.9 198 115.3 196.3 115.6 194.4C116.3 190.7 116.8 187.4 116.7 184.9C116.8 182.5 116.3 181.1 116.4 181.1Z" fill="white"/>
<path d="M136.5 183.6C136.4 183.6 135.9 182.6 134.9 181.1C133.9 179.6 132.1 177.6 129.8 176C127.5 174.4 125.1 173.5 123.3 173C121.5 172.5 120.4 172.5 120.4 172.4C120.4 172.4 120.7 172.4 121.2 172.4C121.7 172.4 122.5 172.5 123.4 172.7C124.3 172.9 125.4 173.2 126.6 173.7C127.7 174.2 129 174.8 130.2 175.7C131.4 176.5 132.4 177.5 133.3 178.4C134.1 179.3 134.8 180.2 135.3 181C135.8 181.8 136.1 182.5 136.3 183C136.4 183.3 136.5 183.6 136.5 183.6Z" fill="white"/>
<g opacity="0.3">
<path d="M77.7 236C78.7 235.5 79.1 234.1 78.4 233.3C77.7 232.5 76.6 232.3 75.5 232.3C70.3 232.4 65.8 235.9 60.7 236.8C56.8 237.5 52.8 236.7 49.1 235.6C45.3 234.5 41.7 233 37.8 232.2C37 232 36.2 231.9 35.4 232.1C34.6 232.3 33.9 232.9 33.8 233.8C33.7 234.6 33.9 235.2 35.1 235.6C35.1 235.6 47.9 239.2 57.1 239C67 238.9 77.7 236 77.7 236Z" fill="black"/>
</g>
</g>
<defs>
<clipPath id="clip0_74_1158">
<rect width="252.1" height="441.8" fill="white"/>
</clipPath>
</defs>
</svg>
