<svg width="83" height="65" viewBox="0 0 83 65" fill="none" xmlns="http://www.w3.org/2000/svg">
<path d="M65.532 64.5559H83L60.9752 30.3794L52.431 44.2399L65.532 64.5559Z" fill="white"/>
<path d="M42.178 60.189L45.026 64.556H61.3548L50.3424 47.2778L42.178 60.189Z" fill="white"/>
<path d="M41.6085 33.6069L33.4441 46.5181L42.1781 60.1887L50.3425 47.2775L41.6085 33.6069Z" fill="white"/>
<path d="M41.4186 27.1513L52.4311 44.2396L60.9752 30.3791L41.4186 0L22.8114 29.6197L31.3555 43.2903L41.4186 27.1513Z" fill="white"/>
<path d="M22.8113 29.6191L0.976318 64.5551H18.0646L31.3555 43.2897L22.8113 29.6191Z" fill="white"/>
<path d="M22.0519 64.5557H39.33L42.1781 60.1887L33.4441 46.5181L22.0519 64.5557Z" fill="white"/>
</svg>
