<svg width="336" height="266" viewBox="0 0 336 266" fill="none" xmlns="http://www.w3.org/2000/svg">
<path d="M265.074 265.074H336.8L246.363 124.741L211.28 181.654L265.074 265.074Z" fill="#5C184C" fill-opacity="0.04"/>
<path d="M169.18 247.143L180.874 265.074H247.922L202.704 194.128L169.18 247.143Z" fill="#5C184C" fill-opacity="0.04"/>
<path d="M166.841 137.995L133.317 191.009L169.18 247.143L202.704 194.128L166.841 137.995Z" fill="#E11A2C" fill-opacity="0.04"/>
<path d="M166.061 111.487L211.28 181.654L246.363 124.741L166.061 0L89.6574 121.622L124.741 177.756L166.061 111.487Z" fill="#E11A2C" fill-opacity="0.04"/>
<path d="M89.6574 121.622L0 265.074H70.1667L124.741 177.755L89.6574 121.622Z" fill="#821545" fill-opacity="0.04"/>
<path d="M86.5389 265.074H157.485L169.18 247.143L133.317 191.009L86.5389 265.074Z" fill="#821545" fill-opacity="0.04"/>
</svg>
