<svg width="155" height="35" viewBox="0 0 155 35" fill="none" xmlns="http://www.w3.org/2000/svg">
<path d="M58.8 9.19995C59.7 9.19995 60.8 9.29995 62.1 9.49995C63.3 9.69995 64.4 9.99995 65.4 10.6C66.4 11.1 67.1 12 67.7 13C68.2 14.1 68.2 15.5 67.7 17.2L63.2 34H54.2C53.3 34 52.2 33.9 50.9 33.7C49.7 33.5 48.6 33.1999 47.6 32.5999C46.6 32.0999 45.9 31.3 45.3 30.2C44.8 29.2 44.8 27.7 45.3 25.9C45.8 24 46.7 22.5 48 21.4C49.3 20.2 50.7 19.4 52.4 18.7C54.1 18.1 55.9 17.7 57.8 17.5C59.7 17.3 61.6 17.3 63.5 17.4L63.6 17.2C64 15.8 64 14.7 63.7 13.9C63.4 13.1 62.8 12.5 62.1 12C61.4 11.6 60.5 11.3 59.6 11.2C58.7 11.1 57.9 11 57.1 11H54L54.3 9.69995C54.8 9.49995 55.4 9.29995 56 9.19995C56.8 9.29995 57.7 9.19995 58.8 9.19995ZM62.9 19.8C61.4 19.7 59.9 19.7 58.5 19.8C57.1 19.9 55.7 20.2 54.5 20.6C53.3 21 52.2 21.7 51.3 22.5C50.4 23.3 49.8 24.5 49.3 25.9C48.9 27.3 48.9 28.4 49.2 29.2C49.5 30 50.1 30.6 50.8 31C51.5 31.4 52.4 31.6 53.3 31.7C54.2 31.8 55 31.7999 55.8 31.7999H59.6L62.9 19.8Z" fill="#E11A2C"/>
<path d="M84.1 9.09998H88.3L87.9 10.5C87.4 10.7 86.8 10.9 86.2 11C85.6 11.1 84.6 11.2 83.5 11.3C82.8 11.4 82 11.5 81.1 11.7C80.2 11.9 79.4 12.2 78.7 12.6C77.9 13 77.2 13.6 76.6 14.4C76 15.1 75.5 16.1 75.3 17.3L70.7 34H66.6L71.1 17.2C71.3 16.3 71.7 15.4 72.3 14.4C72.8 13.5 73.6 12.6 74.6 11.8C75.6 11 76.9 10.4 78.4 9.89997C79.9 9.39997 81.8 9.09998 84.1 9.09998Z" fill="#E11A2C"/>
<path d="M100.5 8.59998C101.7 8.59998 102.9 8.79998 104 9.19998C105.1 9.59997 106 10.1 106.7 10.9C107.4 11.6 107.9 12.5 108.1 13.6C108.3 14.6 108.2 15.8 107.8 17.1C107.4 18.3 106.9 19.3 106.1 20.1C105.3 21 104.4 21.7 103.4 22.2C102.4 22.8 101.3 23.2 100.1 23.6C98.9 23.9 97.7 24.2 96.6 24.3C95.4 24.4 94.3 24.5 93.3 24.4C92.2 24.3 91.3 24.2 90.6 24L90 26.3C89.7 27.6 89.7 28.7 90.1 29.4C90.5 30.1 91 30.7 91.8 31.1C92.5 31.5 93.3 31.7 94.2 31.8C95.1 31.9 95.9 31.9 96.7 31.9H98.5H101.6L101.2 33.3C100.7 33.5 100.1 33.7 99.5 33.8C98.8 33.9 97.9 34 96.8 34H95C94.1 34 93 33.9 91.7 33.7C90.5 33.5 89.4 33.2 88.4 32.6C87.4 32 86.6 31.3 86.1 30.2C85.6 29.2 85.6 27.7 86.1 25.9L88 18.6C88.4 17.1 89 15.8 89.8 14.5C90.6 13.3 91.5 12.2 92.6 11.3C93.7 10.4 94.9 9.69998 96.3 9.19998C97.5 8.79998 98.9 8.59998 100.5 8.59998ZM104.1 16.8C104.4 15.8 104.5 14.9 104.5 14.2C104.4 13.5 104.2 12.8 103.8 12.3C103.4 11.8 102.9 11.4 102.2 11.1C101.6 10.8 100.8 10.7 100 10.7C98.2 10.7 96.6 11.3 95.2 12.5C93.8 13.7 92.9 15.2 92.4 17.1L91.1 21.8C92.7 22 94.3 22 95.7 21.8C97.1 21.7 98.4 21.4 99.5 21C100.6 20.6 101.6 20.1 102.4 19.4C103.2 18.7 103.7 17.9 104.1 16.8Z" fill="#E11A2C"/>
<path d="M125.5 9.39997C126.7 9.59997 127.9 9.89998 128.9 10.5C129.9 11 130.7 11.8 131.2 12.9C131.7 13.9 131.7 15.4 131.2 17.1L126.7 34.1H122.6L127.1 17.3C127.5 15.9 127.5 14.8 127.2 14C126.9 13.2 126.3 12.6 125.6 12.2C124.9 11.8 124 11.6 123.1 11.5C122.2 11.4 121.3 11.4 120.6 11.4H116.9L110.6 34H106.5L113.2 9.09998H122.2C123.2 9.09998 124.2 9.19997 125.5 9.39997Z" fill="#E11A2C"/>
<path d="M145.4 9.19995C146.3 9.19995 147.4 9.29995 148.7 9.49995C149.9 9.69995 151 9.99995 152 10.6C153 11.1 153.7 12 154.3 13C154.8 14.1 154.8 15.5 154.3 17.2L149.8 34H140.8C139.9 34 138.8 33.9 137.5 33.7C136.3 33.5 135.2 33.1999 134.2 32.5999C133.2 32.0999 132.4 31.3 131.9 30.2C131.4 29.2 131.4 27.7 131.9 25.9C132.4 24 133.3 22.5 134.6 21.4C135.9 20.2 137.3 19.4 139 18.7C140.7 18.1 142.5 17.7 144.4 17.5C146.3 17.3 148.2 17.3 150.1 17.4V17.2C150.5 15.8 150.5 14.7 150.2 13.9C149.9 13.1 149.3 12.5 148.6 12C147.9 11.6 147 11.3 146.1 11.2C145.2 11.1 144.4 11 143.6 11H140.5L141 9.99995C141.5 9.79995 142.1 9.59995 142.7 9.49995C143.4 9.29995 144.3 9.19995 145.4 9.19995ZM149.5 19.8C148 19.7 146.5 19.7 145.1 19.8C143.7 19.9 142.3 20.2 141.1 20.6C139.9 21 138.8 21.7 137.9 22.5C137 23.3 136.4 24.5 136 25.9C135.6 27.3 135.6 28.4 135.9 29.2C136.3 30 136.8 30.6 137.5 31C138.2 31.4 139.1 31.6 140 31.7C140.9 31.8 141.7 31.7999 142.5 31.7999H146.3L149.5 19.8Z" fill="#E11A2C"/>
<path d="M34 34H43.2L31.6 16L27.1 23.3L34 34Z" fill="#5C184C"/>
<path d="M21.7 31.7L23.2 34H31.8L26 24.9L21.7 31.7Z" fill="#5C184C"/>
<path d="M21.4 17.7L17.1 24.5L21.7 31.7L26 24.9L21.4 17.7Z" fill="#E11A2C"/>
<path d="M21.3 14.3L27.1 23.3L31.6 16L21.3 0L11.5 15.6L16 22.8L21.3 14.3Z" fill="#E11A2C"/>
<path d="M11.5 15.6L0 34H9L16 22.8L11.5 15.6Z" fill="#821545"/>
<path d="M11.1 34H20.2L21.7 31.7L17.1 24.5L11.1 34Z" fill="#821545"/>
</svg>
